<svg id="Layer_1" data-name="Layer 1" xmlns="http://www.w3.org/2000/svg" viewBox="0 0 512 512"><title>globe-pointers-handdrawn</title><g id="icon"><path d="M475.69,123.5C433.56,52.59,354.63,5,275,.71c-105.54-8-207,51.66-251.59,147.74C-8.67,213-7.44,304,25,367.69c41.23,88.16,138,148.1,235.31,144.13C359.1,511.68,452.6,446,490.87,357.26,524.53,285.88,516.89,189.66,475.69,123.5ZM251.41,490.36c-40.34-27.14-73.83-66.44-94.56-109.12,29-13.52,60.41-20.32,94.9-21.21Zm33.18,5.13a312,312,0,0,0,77-83.57c4.36-6.94,8-13.51,11.9-20.78,18.19,9.33,34.85,22.12,50.58,37.14C385.4,465.61,337.24,489,284.59,495.49Zm-18.22-5.65.57-129.74c31.56,1.86,63.57,9.42,91.58,23l1.75,1C339.73,425.36,305.07,463.52,266.37,489.85ZM493.75,265.26c1,.57,2.46.23,3.73.37-2.24,56.59-24.09,108.1-63,151.58-16.88-16-35.43-28.86-54.32-39.94,15.34-34.43,25.24-75,25.76-111.81l38.06-.1-.12-.1s-7.3-7.4-14.49-14.56l-23.38,0c-1.32-41.93-10.67-79.56-26.17-115.69-4.27,4.3-7.53,7.55-7.53,7.55l-4.24,4.28a272,272,0,0,1,22.86,103.77l-103.38.24a48.34,48.34,0,0,1,13.29,14.67l86.64-.21,3.38.24c-.41,37.28-10,72.1-23.86,104.43a269.89,269.89,0,0,0-95.44-24.31c-2.38,2.39-4,4-4,4l-8.08,8.13-8.07-8.15L247,345.36a271.2,271.2,0,0,0-96.55,22c-1.61-3.9-2.93-8-4.38-12a48,48,0,0,1,.8,8.05,45.06,45.06,0,0,1-8.58,27c1.57-.89,3.14-1.87,4.71-2.73,20,40.13,52.34,80.45,91,108.74-56.56-4.76-107-29.3-147-67.69,1.45-1.57,3.12-2.9,4.63-4.4l-1.06-1.06s-4.36-4.42-9.64-9.7c-1.54,1.35-3.12,2.65-4.65,4-38.5-42.65-59.43-93.91-61.87-151.92l91-.17,8.41.26a279.64,279.64,0,0,0,6.38,54.75,48.23,48.23,0,0,1,20.95,20.6c-7-22.81-11.53-46.77-12.49-69.71l.25-5.8,89.23-.14a48.76,48.76,0,0,1,13.24-14.6l-102.86,0a293.82,293.82,0,0,1,4.62-43.59L130.5,210l-8.07-8.15-3-3a297.2,297.2,0,0,0-5.85,52L14.92,251l-.36-.35.64-18.29c1.07-.79-.2-2.31.61-3.36,6.53-50.43,25.69-96.75,61.18-135,5.81,5.55,11.88,10.72,18.06,15.7a47.78,47.78,0,0,1,11.81-9.37,179.5,179.5,0,0,1-19.18-17c41.58-39.75,92.88-63.5,150.2-67.74A320.52,320.52,0,0,0,157.38,102a48.31,48.31,0,0,1,11,10.57C189.23,78,219.08,46.5,252.7,23.29l-.57,128.39a235.9,235.9,0,0,1-73.76-13c.07,1.12.34,2.17.34,3.31A47.68,47.68,0,0,1,177,154c24.08,7.73,49.65,12.52,75.36,12.72l-.34,75.73a45.68,45.68,0,0,1,7.39-.76,46.42,46.42,0,0,1,8,.82l-.18-75.13,0-1.17A249.21,249.21,0,0,0,358.47,145l-2.3-2.34s-4-4.07-9-9.08a219.11,219.11,0,0,1-79.8,17.65l.2-125.26c17.94,11.76,35.24,26.91,50.6,43.69A47.14,47.14,0,0,1,325,55a306.68,306.68,0,0,0-45.23-39.36,248.69,248.69,0,0,1,75,19.86,47.46,47.46,0,0,1,9.53-1,48.09,48.09,0,0,1,46.27,35.52c4.86,4,9.63,8.2,14.26,12.67-4.52,4.58-9.39,8.91-14.37,13.09-2.33,8.1-6.77,15.51-14.15,22.83-4.22,4.18-10.07,10-14.93,14.88a246.66,246.66,0,0,0,53.82-39.65A233,233,0,0,1,481,167.18a48,48,0,0,1,19.15,38.2,45.21,45.21,0,0,1-4.58,20.18c1,8.2,1.77,16.54,2,25l-22.93,0C467.3,258,460,265.26,460,265.26l-.06.07ZM388.24,110.6C396.82,102.08,401,93.89,401,82.72A36.7,36.7,0,0,0,333,63.58a36.29,36.29,0,0,0-5.29,17.07c0,.7-.21,1.36-.21,2.07,0,11.17,4.89,20.14,12.79,27.88,4.79,4.7,12.57,12.49,18,17.92l6,6.06s11.07-11.11,19.7-19.69C385.46,113.34,386.94,111.88,388.24,110.6ZM364.54,98.17A16.7,16.7,0,0,1,348,82.09c0-.17-.05-.35-.05-.55a16.62,16.62,0,1,1,16.63,16.63ZM98.73,326.58a36.79,36.79,0,0,0-36.79,36.8c0,11.13,4.89,20.12,12.81,27.89,3.92,3.87,9.9,9.83,14.9,14.86l9.08,9.15s15.43-15.49,24-24A43.08,43.08,0,0,0,133,376.37a32.62,32.62,0,0,0,2-8,38,38,0,0,0,.52-5,36.91,36.91,0,0,0-36.81-36.8Zm.33,52.24a16.63,16.63,0,1,1,16.61-16.63A16.65,16.65,0,0,1,99.05,378.82ZM259.46,253.07a37.15,37.15,0,0,0-36.78,36.78c0,11.16,4.9,20.12,12.79,27.89,4.41,4.31,11.3,11.23,16.59,16.55,4.2,4.21,7.39,7.45,7.39,7.45l7.62-7.65c5.12-5.13,11.74-11.74,16.39-16.36,8.59-8.52,12.8-16.73,12.8-27.89a37.13,37.13,0,0,0-36.8-36.78Zm7.74,50.4a16,16,0,0,1-15.08-.11,16.62,16.62,0,1,1,15.08.11Zm-105-179.91A36.72,36.72,0,0,0,93.75,142c0,11.13,4.9,20.11,12.8,27.87,4.19,4.11,10.65,10.57,15.82,15.77,4.57,4.6,8.15,8.23,8.15,8.23l7-7c5.2-5.2,12.15-12.16,17-17,6.3-6.24,10.17-12.34,11.83-19.5a37.19,37.19,0,0,0,1-8.38,35.72,35.72,0,0,0-.84-7.65A36.13,36.13,0,0,0,162.22,123.56Zm-31.38,33.83h-.14a16.63,16.63,0,0,1-16.49-16.62,16.63,16.63,0,0,1,33.25,0A16.62,16.62,0,0,1,130.84,157.39ZM476,233.26c8.6-8.54,12.76-16.76,12.76-27.88a36.78,36.78,0,1,0-73.56,0c0,11.13,4.89,20.13,12.8,27.88,4.65,4.55,12.1,12,17.48,17.41l6.52,6.57s2.8-2.78,6.58-6.58C463.75,245.42,471,238.17,476,233.26Zm-23.69-12.45a16.62,16.62,0,1,1,16.62-16.64A16.63,16.63,0,0,1,452.27,220.81Z" fill="none" stroke="#001e53"/><path d="M446.37,188.58c.92,1.59,25-14.41,25-14.41,1.1,1.9-20.45,13.07-20.13,13.64.62,1.07,20.65-14.33,21.69-12.52,1.18,2-18.1,12.23-18.1,12.23s19.23-11.43,19.37-11.19c.73,1.27-17.25,11.08-16.86,11.76.24.41,18-10.37,18-10.37.77,1.34-16.66,9.61-15.88,11,.05.09,17.14-10.49,17.4-10,1.16,2-16.06,11.17-16,11.27.17.29,17.08-12,18-10.4s-16,11.38-16,11.38S479,179.57,479.89,181l-16.38,11.91,18.12-10.46s-17.11,11.25-16.53,12.26c.07.12,17.9-10.34,17.9-10.34s-16.31,10.08-15.7,11.14c0,.07,16.16-10.6,16.71-9.65.42.72-16,11.2-16,11.21s15.54-10.42,16.17-9.33c0,0-15.86,10.5-15.31,11.44.79,1.36,15.33-9.65,15.68-9.05,0,0-17.12,9.75-16.17,11.39s17.8-10.28,17.8-10.28l-17.37,12.33c.78,1.34,17.21-10.86,17.61-10.17,1.2,2.08-16.93,12.59-16.93,12.59.64,1.11,17.55-12.42,18.54-10.71l-20.34,14.26c.74,1.28,19.59-12.62,20.16-11.64,1.13,2-22.26,13.77-21.54,15,1.08,1.86,20.58-13.93,21.47-12.39,1.8,3.11-25.48,16.56-25.33,16.82s25.35-14.63,25.35-14.63" fill="none" stroke="#00286f" stroke-linecap="round" stroke-linejoin="round" stroke-width="0.7"/><path d="M430.66,175.46c.24.41,4.74-2.74,4.74-2.74s-10.51,7.13-10.2,7.67c1.05,1.82,18.84-10.88,18.84-10.88,1.29,2.24-23.24,16.18-23.2,16.25.34.59,28.9-16.69,28.9-16.69.58,1-31.62,15.87-29.81,19,0,0,32.08-20.48,32.93-19,1.38,2.39-36.08,18.56-34.16,21.88,0,0,36.13-23.58,37.31-21.54,2.47,4.28-39.48,24.7-39.18,25.22s42-27.92,43.62-25.18c0,0-44,27.1-43.86,27.29,3.17,5.5,45.17-26.08,45.17-26.08.28.48-47.5,27.79-46.71,29.15,2.16,3.74,50.57-29.2,50.57-29.2C468.89,176.31,413,199,415,202.31c.65,1.13,51.4-31.4,52.15-30.11,0,0-54.48,26.4-51.14,32.19.1.17,51.52-35.55,54-31.2L415,207c1.35,2.34,25.72-15.7,26.09-15.06.23.39-26.32,17.18-26,17.68.16.28,20.51-15.23,22-12.69.53.92-21.65,15.26-21.65,15.26,1.06,1.83,20.05-12.38,20.4-11.78l-19.61,14c.49.85,18.41-12.43,19.19-11.08l-18.77,13.66s18-12.13,18.72-10.81l-18.16,12.47,18.73-10.82C437,209.85,417,218,418.22,220.07l18.21-10.51s-16.87,12.2-16.86,12.22l17-9.83c.29.51-17.44,11.18-16.81,12.28s18.1-12.68,19.07-11c0,0-18.38,10.22-17.19,12.28,0,0,16.56-11.56,17.43-10.06s-17.05,10-15.86,12c.48.82,17.18-12.85,18.45-10.65,1.1,1.91-17.47,12.21-17.24,12.6,1.11,1.92,19.42-11.72,19.64-11.34,0,0-18.27,11-17.24,12.74.56,1,18-13.16,19.2-11.09.57,1-18.82,11.8-18.43,12.48,0,0,19.84-12.35,20.23-11.68.61,1-19.22,11.63-18.57,12.76,1.19,2.07,21.8-13.8,22.32-12.89l-21.4,14.89c.46.79,25.15-14.52,25.15-14.52.41.7-25.89,13.5-24.42,16,.43.75,57.74-33.34,57.74-33.34,3.44,6-57.92,31-55.61,35,2.8,4.86,54.81-35,56.25-32.48.21.37-55,33.82-55,33.82,1.23,2.13,52-36.54,54.84-31.66,1.06,1.84-53.37,33.14-53.37,33.14S485,206,488,211.15c0,0-53.47,26.93-50.56,32,0,0,48.68-31.42,50.11-28.93.13.23-48.9,28.31-47.82,30.19,1.48,2.57,46.6-28,47.08-27.18,0,0-48.56,24.87-46.07,29.18,0,0,43-28.74,44.71-25.81,0,0-45.85,23-43.09,27.75s38.31-27,40.42-23.33c1.37,2.38-39.92,22.18-38.35,24.9,0,0,33.77-22.4,35-20.22.51.89-33.8,19.63-33,20.94,1.75,3,28.85-16.66,28.85-16.66s-29.82,16.85-28.73,18.75c1.43,2.48,22.46-13.42,22.66-13.08.29.5-20.68,14.35-20.64,14.42.44.76,15.3-11,16.21-9.36,0,.08-15.38,9.44-14.64,10.72.31.54,9.18-5.3,9.18-5.3.13.22-8.47,6.64-8.47,6.64.09.16,3-2.07,3.16-1.83" fill="none" stroke="#00286f" stroke-linecap="round" stroke-linejoin="round" stroke-width="0.7"/><path d="M254,273.14c1.56,2.7,24.65-14.9,24.94-14.4.44.77-18.41,11.57-17.65,12.88,0,0,19.33-12.91,20.09-11.6S263,272.37,263.48,273.11s19.29-13,20.1-11.61c0,0-16,11.8-15.93,11.92.66,1.14,15.35-11.44,16.46-9.51.54.94-16.66,9.71-15.61,11.52,0,0,17.27-11.82,18.07-10.44.92,1.59-16.22,10.93-16,11.26s16.79-10.47,17.12-9.89c.23.4-15.83,10.21-15.52,10.75.75,1.3,15.59-10.11,16.07-9.28.37.65-15.34,9-14.56,10.32,0,0,14.16-10.48,15.16-8.75.69,1.19-15.83,9.79-15.15,11,.35.6,16.49-11.35,17.28-10,.23.39-16.8,11.8-16.8,11.8s16.08-11.55,17.06-9.85c.77,1.33-16.12,9.52-15.32,10.91.21.36,16.63-9.6,16.63-9.6.59,1-16.28,12.1-16.28,12.1,1,1.8,16.53-10.38,16.9-9.75,1.07,1.86-17.45,12.37-17.45,12.37.85,1.47,18-12.54,19-10.94S276.06,290,276.06,290c.13.22,17-12.23,18-10.4l-18.53,13.53c.67,1.17,19.17-12.37,19.74-11.4,0,0-21.68,14.69-21.49,15,.56,1,21-13.71,21.65-12.5,0,0-25.6,17.26-25.49,17.46,1,1.8,25.63-16.78,26.49-15.29" fill="none" stroke="#00286f" stroke-linecap="round" stroke-linejoin="round" stroke-width="0.7"/><path d="M237.65,260.36s5.66-3.62,5.82-3.36c.74,1.28-12.89,8.27-12.19,9.48.38.65,22.72-13.12,22.72-13.12.89,1.55-26.66,15.44-25.52,17.43,1.24,2.14,30.29-18.59,30.77-17.76,2.23,3.86-33.63,18.75-32.27,21.12.12.2,36.46-21.78,36.77-21.23,1,1.81-39.51,25.67-39.51,25.67s39.6-29,42.25-24.39c2.07,3.58-43.53,26.16-42.87,27.31.22.39,46.14-27,46.29-26.72,2,3.47-48.14,26.67-46.46,29.58,1.09,1.88,46.47-34.29,49.7-28.69,2.16,3.75-49.62,31.45-49.62,31.45,2.45,4.25,49-34,51.49-29.73,1.16,2-55,28-52.55,32.31,1.6,2.77,54.42-31.42,54.42-31.42,1.52,2.64-56.09,31.68-54.62,34.23,0,0,25.3-14.61,25.3-14.61.33.56-25.82,15.37-25.1,16.61,1.4,2.43,21.23-15.28,22.54-13s-22.27,12.61-21,14.86c.43.74,18.17-13.62,19.53-11.27,0,0-19.27,12.56-19.09,12.86.85,1.48,18.77-10.84,18.77-10.84.52.9-19.25,13.36-19.25,13.36l18.55-10.71c.18.3-17.35,12.86-17.35,12.86s18.52-11.4,18.83-10.87c1.25,2.16-17.78,11.38-17.36,12.11,1.21,2.1,17-9.8,17-9.8s-17.74,11-17.07,12.1L244.11,296c.89,1.54-15.92,12.05-15.92,12.05s17.75-11.85,18.45-10.65c.26.46-19,10.31-17.86,12.27.15.27,17.6-10.16,17.6-10.16.18.31-17,11-16.53,11.9.6,1,17.78-11.64,18.38-10.61.49.84-16.4,11.28-16.19,11.65.93,1.61,17.28-11.55,18-10.37.06.11-17.9,13.1-17.85,13.19,1.33,2.3,20.37-11.76,20.37-11.76,1.29,2.24-19,10.2-17.88,12.18.61,1.06,18.72-12.2,19.32-11.16.25.43-18.8,12.18-18.3,13.05s20.94-14.74,22.08-12.75c.43.75-22,13.89-21.69,14.51.52.89,23.1-14.61,23.65-13.66.36.62-22.26,14.53-22.09,14.83,1.81,3.14,28-19.83,29.6-17.09,1.86,3.22-28,18.68-28,18.68.59,1,53.86-38.11,56.89-32.85,2.39,4.14-55.67,34.13-55.67,34.13,1.52,2.63,55.7-32.16,55.7-32.16,3.06,5.3-56.14,28.42-53.2,33.51,3.59,6.23,53.47-30.87,53.47-30.87,2.84,4.91-52.53,32.23-52.53,32.23,1.65,2.86,49.6-33.59,51.74-29.87,3.34,5.78-51.73,27.27-49.44,31.24,2.75,4.76,48-31.27,49.58-28.62C297,301,247,329.1,247.06,329.18c1.55,2.68,44.22-32,47-27.15.79,1.36-47.55,25-45.23,29,0,0,41.56-29.57,44-25.39.84,1.45-43.21,24.7-41.9,27,0,0,37.64-25.08,39.09-22.57.93,1.61-40.74,20.78-38.55,24.57,0,0,34-23.05,35.46-20.47.11.19-35.12,17.68-32.94,21.45,1.66,2.88,26.32-17.69,27.4-15.82.31.53-27.39,14.68-26,17.14s20-12,20.19-11.66c.4.7-20.47,12.78-19.93,13.71l15-8.67c.24.41-12.7,8.69-12.45,9.12.49.86,7.3-5.34,7.79-4.5.39.68-7.42,5.91-7,6.6a11.83,11.83,0,0,0,1.59-.92" fill="none" stroke="#00286f" stroke-linecap="round" stroke-linejoin="round" stroke-width="0.7"/><path d="M93.1,346.61s24.08-16.27,25.1-14.49c0,0-20.36,11-19.06,13.2.93,1.6,20.9-13.3,21.43-12.38s-19.43,11-18.2,13.12c1,1.8,19.21-11.09,19.21-11.09.81,1.4-17,12.1-17,12.1,1.12,1.94,18.58-12.69,19.43-11.22.34.58-17.08,11.92-17.08,11.92,1.11,1.92,18.36-10.6,18.36-10.6.7,1.21-17,11-16.7,11.61.06.1,17.06-9.85,17.06-9.85s-15.6,9.67-14.77,11.1c0,0,17-10.16,17.19-9.92,1,1.75-15.81,10.66-15.37,11.41,0,0,14.89-9.92,15.47-8.93,0,0-15.62,10-14.79,11.41.62,1.08,16.46-10.36,16.83-9.72.73,1.26-17.28,10-16.35,11.57l17.38-10S115,357.15,115.1,357.32c.41.71,16.46-10.95,17.08-9.86,0,0-17.82,11.55-17.15,12.7,0,0,17.66-11.07,18-10.41.64,1.11-17.28,11.51-16.85,12.26.71,1.23,16.19-10.58,16.72-9.66.07.12-17.93,13-17.93,13,1.18,2,20-11.57,20-11.55.46.8-20.23,14.53-20.23,14.53.71,1.23,19.37-11.4,19.46-11.23,1.41,2.44-22.38,13.68-21.53,15.15.36.61,21.12-14.17,22-12.69" fill="none" stroke="#00286f" stroke-linecap="round" stroke-linejoin="round" stroke-width="0.7"/><path d="M78.91,332.59c0,.08,3.13-2.42,3.39-2s-11.4,8.54-11.4,8.54,18.31-13.54,19.6-11.32c.34.59-23.26,16-23.26,16,2,3.42,27.46-19.31,29-16.72.7,1.21-31.2,18.4-30.49,19.64.95,1.64,35.14-20.29,35.14-20.29.44.76-36.25,23.35-36.25,23.35,2.17,3.75,39.26-22.9,39.36-22.72,1.37,2.37-41.59,24.35-40.64,26,.07.12,40.78-29.81,43.49-25.11.23.4-46.71,22.33-43.66,27.6,3.17,5.5,44.32-30.39,46.4-26.79,0,0-49.6,24.25-46.72,29.24,2.46,4.25,48.1-30.28,49.19-28.4,0,0-52.8,26.49-49.93,31.46,2.43,4.21,50.64-36,53.58-30.94,3.11,5.39-54,33.9-54,33.9s55.21-32.55,55.5-32c2,3.46-55.74,34.41-55.74,34.41S85.64,351.68,86,352.24c.42.73-23.87,15.83-23.52,16.43.74,1.27,19.91-14.79,21.33-12.32,0,0-21.52,12.53-20.67,14,.7,1.22,18.56-13.69,19.85-11.46l-20.39,13.6C63.42,374,82.7,360,83.05,360.66c.67,1.15-18.55,13.57-18.55,13.57l17.93-10.35c1,1.77-18.37,10.6-17.42,12.24s17.16-9.91,17.16-9.91c.49.84-17.1,11.9-16.94,12.17,0,0,17.26-12.79,18.49-10.67.17.3-17.3,12.08-17.3,12.08,1.16,2,18.17-10.77,18.29-10.56.21.37-16.92,12.28-16.92,12.28s17.27-10.24,17.39-10c.36.63-17.27,12.33-17.27,12.33S86.3,372.46,86.61,373c.09.15-17.84,11.16-17,12.67,0,0,18.27-10.71,18.34-10.59.7,1.22-17,11.76-17,11.76l18.34-10.59c.81,1.41-17.93,9.69-16.75,11.74.63,1.1,18.37-10.61,18.37-10.61s-18.38,11.23-17.79,12.26C74.46,391.85,93.29,378,93.29,378c.15.25-19.51,13.2-19.51,13.2s21-13.29,21.54-12.44c.63,1.09-19.26,12.39-18.61,13.52.39.68,23-14.56,23.52-13.58.46.8-23.48,15.15-23.32,15.41.39.67,28.31-18.79,29.37-17,.67,1.15-28.18,15.23-26.75,17.71.25.44,52.06-37.4,55.24-31.89.88,1.53-55.64,30.27-53.82,33.42,1.1,1.9,53.68-33.19,54.64-31.54,0,0-53.83,32.92-53.49,33.51,3.35,5.8,51.78-33.09,53.16-30.69C138,372.51,81.66,397,83.49,400.21c1.72,3,49.41-32.43,51.1-29.5,2.4,4.16-50.06,30.7-50.06,30.7,1.7,2.94,48.53-29.91,49.35-28.49,2.73,4.72-49.76,25.49-47.49,29.42,3.16,5.48,47.47-27.41,47.47-27.41,2.82,4.89-46.5,29.53-46.5,29.53.89,1.54,43.75-27.4,44.68-25.8.53.92-42.55,26.43-42.55,26.43.11.19,39-27.3,41.09-23.73,0,0-40.87,24.2-40.34,25.13,2.3,4,38.11-22.27,38.23-22.07,1.26,2.19-39.65,19-37.06,23.51,2.29,4,33.15-19.84,33.45-19.31.83,1.44-33.45,17.47-31.82,20.29.7,1.22,28.46-16.43,28.46-16.43.92,1.6-27.3,18.51-27.3,18.51s20.22-12.67,20.65-11.93c0,0-19.4,12.48-19,13.17.83,1.44,12.1-9,13-7.49s-12.5,7.51-11.83,8.68c.11.2,7.45-4.3,7.45-4.3.27.47-7,5.42-6.76,5.88.08.14,3.51-2.22,3.59-2.07" fill="none" stroke="#00286f" stroke-linecap="round" stroke-linejoin="round" stroke-width="0.7"/><path d="M358.55,66c.55,1,25.25-14.58,25.25-14.58,1.16,2-18.49,13.54-18.49,13.54.11.19,19.87-12.11,20.14-11.63.08.13-16.71,11.61-16.5,12,0,0,18.83-11.92,19.29-11.14,0,0-19,10.19-17.87,12.12,0,0,18.35-11.87,18.9-10.91.09.15-15.86,11.89-15.84,11.92.82,1.42,16.28-10.15,16.61-9.59.42.73-16,10.14-15.52,10.9,0,0,15.89-11,16.66-9.62.52.89-14.65,10.67-14.65,10.67.74,1.28,16.57-9.57,16.57-9.57s-15.26,10.74-15.23,10.79,15.72-9.41,15.86-9.16c.83,1.43-16,9.35-15,11.05S395,63.36,395,63.36s-16,10.76-15.71,11.23c0,0,17.4-10.75,17.7-10.22,0,0-17.73,10.28-16.76,12,.6,1,17.38-10,17.38-10,.73,1.26-16.37,11.2-16.37,11.2s16.84-10.61,17.22-9.94c.24.41-18.25,11-17.24,12.72.55,1,17-10.12,17.13-9.89,1,1.7-17.89,12.52-17.89,12.52.47.81,18.61-12.26,19.27-11.12,1,1.67-19.78,14.28-19.78,14.28.68,1.17,20.4-11.78,20.4-11.78,1.09,1.88-22.19,12.27-20.74,14.78.09.16,19.21-13.11,20.09-11.6,1,1.67-23.6,13.29-22.64,15,.51.88,22.47-13.95,22.89-13.22" fill="none" stroke="#00286f" stroke-linecap="round" stroke-linejoin="round" stroke-width="0.7"/><path d="M344.48,52c.17.29,3.53-2,3.53-2S336.38,59,336.49,59.2c.72,1.25,20.58-14.68,21.79-12.58,0,0-26.38,15.6-25.52,17.1.14.25,30.78-17.77,30.78-17.77s-33,21.42-32.82,21.68C332.65,71,365.52,41.72,368,46.09c0,0-38.07,23.16-37.73,23.76,1.58,2.74,39.12-25.85,40.54-23.4.8,1.38-43.51,24.57-42.18,26.86,0,0,44.52-28.67,45.81-26.45,2.84,4.91-46.24,27.81-45.84,28.49,1,1.69,46.67-29.52,47.79-27.59s-49.8,26.42-48,29.47c2.56,4.44,49.17-28.39,49.17-28.39,1.53,2.64-52.91,25-49.6,30.77s50.76-32.94,52.34-30.22c0,0-55.27,29.19-52.9,33.3,0,0,53.64-34.91,55.35-32,3.22,5.57-56.31,30.65-54.49,33.8,0,0,22.48-16.28,23.91-13.8,1.74,3-26.53,13.44-24.94,16.19,1.08,1.87,20.33-15.24,21.85-12.61,1.05,1.82-21,14.46-21,14.46.56,1,20.3-13.74,21.17-12.22.68,1.17-21.41,14.92-21.41,14.92.14.25,19.44-13.64,20.49-11.83,1.19,2.07-19.4,14.08-19.4,14.08S346.19,81.08,347.33,83c.78,1.36-17.17,12.2-17.17,12.2C331,96.68,349,84.39,349,84.39c1.07,1.85-18.28,13.1-18.28,13.1,1.14,2,16.9-12.29,18-10.39S330.87,97.24,332,99.19c.94,1.63,17-12.58,18.17-10.49.18.31-18.4,11.69-18,12.32.71,1.23,18.4-11.83,18.92-10.92S332,101.3,332.92,102.91c.84,1.46,19.33-11.22,19.36-11.18l-17.12,12.19c.08.14,16.23-12.05,17.39-10L335.36,106s18.77-13.57,20-11.52c.43.74-17.67,12.49-17.67,12.49.67,1.17,18.44-13.4,19.63-11.33,0,0-19.54,12.19-18.79,13.49.21.37,20.68-13.32,21.28-12.28l-20.42,13.68c1.1,1.91,21.22-13.38,21.71-12.53,1,1.7-20.89,11.6-19.69,13.68,1.44,2.5,23-13.26,23-13.26,1.54,2.67-22.51,14.1-21.89,15.17.94,1.62,56.82-35.35,57.92-33.44.32.56-56.07,33.5-55.46,34.56,0,0,54.84-34.93,56.26-32.48,3.88,6.73-56.62,33-55.92,34.18,3.56,6.17,53.08-36.5,55.61-32.11,1.52,2.63-54.22,31.7-53.44,33,.11.18,53.17-32,53.74-31,2.06,3.57-52.93,30.22-51.67,32.4.61,1.06,48.43-32.18,50.25-29,0,0-52.49,26.85-49.89,31.36,1.77,3.07,46.26-34.21,49.5-28.58.16.28-49,25.7-46.85,29.34,2.55,4.41,47.09-27.19,47.09-27.19.31.54-48.42,24.19-45.67,28.95,1.87,3.23,43.51-25.66,43.74-25.26,0,.07-42.42,27.05-42.42,27.05.44.75,37.63-26.92,39.88-23,0,0-40.76,20.95-38.6,24.69s33.06-23.89,35.14-20.29c1.93,3.35-34.22,21.85-34.22,21.85S386.83,111,387.1,111.48c.9,1.57-27.49,18.65-27.49,18.65,1.45,2.51,21.81-12.9,21.94-12.67,1,1.7-20.92,11.89-19.79,13.84,0,0,14-8.07,14-8.07.29.49-13,9.35-13,9.35s7.75-5,8-4.61-6.7,6.51-6.7,6.51.8-.47.81-.47" fill="none" stroke="#00286f" stroke-linecap="round" stroke-linejoin="round" stroke-width="0.7"/><path d="M124.92,125.25c1.2,2.08,25.07-14.91,25.26-14.58.62,1.07-20,12.93-19.58,13.68,1.23,2.12,21.18-12.31,21.21-12.25s-17.68,10.32-16.74,12c.36.63,17.06-12.53,18.22-10.52.83,1.44-16.92,10.6-16.2,11.86.33.57,18-11,18.28-10.56,0,0-15.75,10.79-15.48,11.26.54.93,15.62-11.07,16.51-9.53.19.33-16.52,10.11-15.94,11.12,0,0,17.71-10.69,17.91-10.34,0,0-16.45,10.37-16,11.1,0,0,14.87-10.88,15.86-9.16.65,1.13-14.27,10.86-14.27,10.86.11.19,16.11-9.3,16.11-9.3.15.26-15.13,10.62-15.13,10.62s14.61-10.86,15.66-9c.12.21-14.94,10.82-14.94,10.82s15.56-10.67,16.29-9.41c.39.67-15.88,11.13-15.69,11.45.79,1.37,17-11.2,17.57-10.14,0,0-17.58,10.38-16.88,11.59.17.29,16.11-10.21,16.51-9.53l-16.36,11.29c.39.68,17.46-10.08,17.46-10.08.14.24-16.35,11.21-16.35,11.21l17-9.83-18,13.26c.65,1.13,17.56-12.21,18.45-10.65.71,1.24-18.69,12.45-18.65,12.52s18.92-13,19.8-11.43c1.51,2.61-21.23,13.63-20.94,14.13s20.79-12.51,21-12.13c0,0-23.82,12.68-22.46,15,1.05,1.82,21.73-15.24,22.9-13.22" fill="none" stroke="#00286f" stroke-linecap="round" stroke-linejoin="round" stroke-width="0.7"/><path d="M110.86,111.18c.26.45,3-1.95,3.09-1.78.73,1.26-11.15,7.67-10.77,8.34,0,0,19.64-13.32,20.5-11.84,1.66,2.87-23.46,15.75-23.46,15.75.94,1.63,26.68-17.54,27.61-15.94.78,1.36-29.78,19.47-29.78,19.47s32.58-23,34.38-19.85c0,0-36.27,21.56-35.38,23.11s37.26-27.72,39.95-23.06c.18.31-43.82,24-42.16,26.82l45.06-26c1.11,1.92-47.09,25.58-45.18,28.9,3.18,5.51,47.64-27.81,47.77-27.58,3,5.16-48.9,29.24-48.31,30.25,2.76,4.77,47.59-34.89,50.8-29.33l-50.76,32.1s53.37-31.4,53.62-31c1.21,2.1-54.17,33.26-53.82,33.86,0,0,23.23-16.77,24.69-14.25L94.47,145.61c.16.28,22.07-13.42,22.36-12.91.59,1-22.43,13.94-22,14.62,1.31,2.27,20-11.53,20-11.53.54.93-20.58,14-20.41,14.33.37.63,19-11.89,19.4-11.2L95.89,151.36c1.19,2.07,18.23-10.52,18.23-10.52L95.94,153.07s18-11.95,18.67-10.78-18.52,12.34-18.2,12.89c.62,1.08,18.67-10.83,18.69-10.79s-18.64,11.45-17.77,13c1,1.68,16.29-11.6,17.25-10,.3.52-16.66,10.35-15.75,11.93.72,1.24,17.3-11.45,17.94-10.36.13.22-17.72,10.82-16.91,12.21.16.27,16.37-11.61,17.31-10,.66,1.14-16,11.12-15.8,11.48s17-9.84,17-9.84c.91,1.58-17.11,11.67-16.64,12.48s17.95-11.7,18.52-10.69c.34.59-17.51,9.84-16.34,11.87.08.14,18.3-12.78,19.26-11.12L105.58,168c.75,1.31,19.8-12.9,20.43-11.8,1.15,2-20.95,12.14-20,13.72,1.09,1.88,20.71-15.15,22.09-12.75,0,0-22.15,11.82-20.93,13.92.47.82,23.2-14.61,23.73-13.7,1.48,2.57-22.61,14.91-22.61,14.91.4.69,24.7-17.46,26.08-15.06.57,1-26.07,14.2-24.86,16.31,1.09,1.89,57-33.16,57.13-33,0,0-58.34,28.4-54.83,34.47,2.81,4.86,55-31.75,55-31.75,1.55,2.68-53.44,33.46-53.44,33.46.91,1.58,53.48-30.88,53.48-30.88,3.24,5.61-53,29.65-51.84,31.7,1.73,3,52.43-30.27,52.43-30.27,1.34,2.32-51.94,30.91-51.26,32.09,0,0,48.52-32.37,50.4-29.1,0,0-49.8,27.52-48.33,30.07,1.8,3.11,45.62-28.88,46.72-27,2,3.53-48.34,26-46.39,29.36s44.37-27.12,45-26c2.05,3.56-44.33,25.35-43.15,27.39,2.7,4.68,42.41-24.49,42.41-24.49s-41.47,25.1-41.06,25.82c.73,1.26,35.89-26.24,38.28-22.1,2.27,3.93-37.33,23.06-37.19,23.3,2,3.54,33.39-21.11,34.18-19.74,0,0-32.2,20.12-32,20.53,0,0,27.16-16.29,27.42-15.83,1.06,1.83-27.18,17.83-27,18.09.43.74,20.6-12.81,21-12.12,1.26,2.17-19.93,12.4-19.42,13.28.3.51,13.76-9.49,14.43-8.33s-12.58,8.2-11.84,9.48l6.69-3.86s-6.35,5.23-6.13,5.61c0,0,.39-.26.4-.23" fill="none" stroke="#00286f" stroke-linecap="round" stroke-linejoin="round" stroke-width="0.7"/><path d="M144.69,42s63.19-42,65.6-37.87c.06.1-49.3,25.34-47.13,29.09,1,1.82,51.66-29.83,51.66-29.83,2.45,4.24-41.26,25.79-41.19,25.91C175.79,33,219.88,2.12,220.08,2.47S182,24.45,182.89,26c1.78,3.08,41.26-23.82,41.26-23.82S187.93,22.3,189.08,24.31c.57,1,39.22-22.64,39.22-22.64s-34.55,18.53-33.11,21l37.2-21.48C233.93,3.86,202,17.4,203.7,20.38c1.45,2.52,32.87-22,34.19-19.74,0,0-30.18,16.36-28.82,18.73.3.51,30.89-21.6,32.52-18.77S216,17.91,216,17.91s30-20,31.17-18c1,1.72-27.08,15.74-26.16,17.33L250.88,0c1.19,2.06-26.37,14.14-24.82,16.83C227.75,19.75,254.21.58,254.21.58,255.49,2.8,230,16.49,230,16.49,230.69,17.64,257.64-1,258.31.16c1.49,2.57-24.5,14.9-23.93,15.9.39.68,26.45-18.73,27.94-16.13,1.7,2.94-28.95,19.22-28.95,19.22,1.48,2.56,31.93-19.51,32.4-18.7.06.1-40.6,25.18-40.6,25.18C226.74,28.33,266.94-.94,268,.9c1.25,2.16-52.14,28.3-50.56,31,0,0,51.92-36.17,54.61-31.53.27.46-61.13,37.49-61.13,37.49.2.34,63.81-37.29,64-37,3.05,5.29-73.62,37-70.18,43,2.52,4.37,73-45.52,74.48-43,4.32,7.49-86.33,41.61-81.59,49.82C201,56.59,277.49-7.78,282.87,1.53l-90,54.32C196,61.34,284.72-2.42,287,1.51c3.84,6.64-97.33,58.2-97.33,58.2,2.5,4.33,62.08-38,63-36.37,2.54,4.39-71.17,33.3-66.94,40.62.48.82,51.69-35.14,54-31.17L180.93,69.34c1.82,3.14,44.59-32.58,47.55-27.45,0,0-50.7,31.74-50.69,31.74,1,1.79,41.2-27.27,42.71-24.66,1.12,1.95-46.84,29.35-46.8,29.41,2,3.54,37.18-27.84,39.94-23.06,1.07,1.86-43.88,22.67-41.77,26.32,1.45,2.51,38-21.93,38-21.93,2,3.44-44.5,22.78-42,27.08.73,1.26,35.57-20.54,35.57-20.54l-38.16,24.4C166.57,93,197.15,70.29,198,71.74c2,3.47-36,22.58-36,22.58l33.28-19.21-34.36,22c1.55,2.68,32-18.49,32-18.49,2.32,4-36.79,18.69-34.87,22l31.85-18.39c1.86,3.23-33.84,17.12-31.69,20.85,0,0,26.35-18.2,27.64-16C187.55,90,160.42,104,160.42,104s20.29-15.33,21.86-12.62C183.7,93.8,161.73,105.1,162,105.5c.54.93,17.66-10.2,17.66-10.2.54.94-17.8,10.12-16.66,12.08.31.54,13.84-10,14.73-8.5.1.18-12.21,9.73-12.21,9.73.12.21,8.2-4.84,8.25-4.76s-8.06,6-7.51,7c.13.22,5.48-3.76,5.74-3.32s-4.69,3.7-4.36,4.28c.08.14,2-1.13,2-1.13" fill="none" stroke="#00286f" stroke-linecap="round" stroke-linejoin="round" stroke-width="0.7"/><path d="M268.24,165.8s29.09-20.58,30.73-17.74c.91,1.57-27.71,15.15-26.13,17.88s33.41-21.63,34.42-19.88c1.47,2.55-30.16,17.9-29.49,19.07,2.19,3.79,32.46-24.38,34.9-20.15,0,0-33.47,16.63-31.51,20,.33.58,35.59-23.66,36.94-21.33,2.14,3.7-34.27,18.89-32.91,21.24.27.47,40-23.73,40.26-23.24,0,0-36.77,19.83-35.1,22.71,0,0,43.41-30.75,45.87-26.48l-39.35,25.16c1,1.68,51.22-29.57,51.22-29.57.22.38-47.1,29-47.1,29,2.68,4.65,45.82-30.54,47.59-27.47,1.62,2.81-40.9,25.91-40.9,25.91.16.28,42-24.28,42-24.28,1.82,3.16-36.59,18.9-34.41,22.68l36.24-20.93c.32.56-29.42,17-28.3,18.9.58,1,27.68-20.14,29.48-17,0,0-24.26,12.46-22.73,15.12l24.83-14.34c0,.06-14.78,9.94-14.18,11,.15.27,15.51-9,15.51-9l1.28,2.13c0,.06.44-.35.49-.28" fill="none" stroke="#00286f" stroke-linecap="round" stroke-linejoin="round" stroke-width="0.7"/><path d="M178.3,139s.78-.48.79-.46a15,15,0,0,1,0,2.55l3.18-1.83c.17.3-3.56,3.58-3.37,3.91,0,0,4.35-3,4.55-2.63.3.52-4.36,5.2-4.33,5.25.55,1,7.28-4.2,7.28-4.2.55.95-8.88,6.65-8.41,7.45,0,0,11.85-7.46,12.12-7,0,0-13.52,8.08-12.83,9.27,0,0,13.82-9.2,14.34-8.28.23.39-14.24,10.49-14.24,10.49s16.44-10.21,16.75-9.67-14.8,10.47-14.46,11.06c.21.36,17.71-11.24,18.15-10.48.28.49-15,10.7-15,10.7.22.38,17.49-10.62,17.72-10.23,1.07,1.86-15.28,11.08-15.28,11.08s16.94-9.91,17-9.81c1.12,1.95-15.42,10.9-15.15,11.36,0,0,17.87-11.86,18.54-10.7.15.26-15.71,9.54-15,10.72S208.74,146,209.2,146.82c.62,1.07-16.47,9.77-15.58,11.31.11.2,18.31-12,18.93-10.93.22.38-16.63,11.69-16.63,11.69.15.26,17.24-12.13,18.19-10.5.45.78-16.9,11.52-16.9,11.52.69,1.19,19.95-11.52,19.95-11.52.22.37-18.56,10.15-17.47,12,1.25,2.16,18.92-13.34,20-11.53.57,1-17.61,10.45-16.71,12L223.57,149S206.26,160.22,207,161.41c.44.76,20.07-11.59,20.07-11.59.92,1.59-17.36,12.13-17.36,12.13.18.32,20.52-11.85,20.52-11.85.14.24-19.39,11.28-18.41,13,0,0,22.13-13.2,22.32-12.88.31.55-19.39,12.26-18.73,13.4,1.36,2.36,22.37-12.92,22.37-12.92S217,162.34,218.11,164.24c.4.69,21.32-13.76,21.95-12.67,1.1,1.91-17.8,13.1-17.8,13.1.91,1.57,21.58-14.11,22.29-12.87,0,0-19.25,12.82-19.13,13,1.46,2.53,23.49-13.56,23.49-13.56.25.43-20.47,14.16-20.47,14.16.76,1.32,35.89-26.83,38.54-22.25,1.48,2.57-35.38,22.17-35.38,22.17s34.1-24,36-20.76c0,.07-32.63,21.09-32.63,21.09.76,1.32,30.16-22.53,32.37-18.69,1.56,2.69-29.84,16.61-28.43,19.06.46.8,28.58-16.5,28.58-16.5.38.66-26.48,14.59-25.09,17,1,1.73,25.4-16.21,26.07-15.05.43.74-20.51,14.7-20.51,14.7s24.22-18,26-15c1.24,2.14-24.17,13.39-23.14,15.18,1.37,2.37,27.31-15.77,27.31-15.77s-27.5,15.24-26.29,17.34c0,0,30.59-18,30.73-17.74.3.51-29.57,19.5-29.57,19.5,2.43,4.2,34.46-19.9,34.46-19.9.5.87-35.74,23-35.74,23,2.13,3.69,38.82-27.86,41.18-23.77.78,1.35-39.91,25.06-39.91,25.06,1.44,2.49,45.56-26.3,45.56-26.3s-47.08,27.14-46.16,28.75c.21.36,13.61-10,14.52-8.38.26.45-14,10.69-14,10.69.44.75,14.17-10.09,15-8.66s-16.2,12-16.2,12l15.92-9.19-15.42,11c.73,1.26,13.95-9.5,14.58-8.42.88,1.52-14.56,10-14.34,10.4l14.13-8.16s-15.23,9.78-14.66,10.78c0,0,14.05-10.47,15.08-8.7,0,0-15.23,10.68-14.84,11.35.71,1.22,14.73-10.48,15.58-9,1,1.65-16.4,11-15.9,11.89.88,1.52,15.33-9.75,15.72-9.07,0,0-16.24,10-15.31,11.61s14.49-8.61,14.6-8.43c.32.55-14.31,10.81-14.31,10.81.83,1.43,15.23-8.79,15.23-8.79.39.67-15.58,9.57-15.06,10.47.69,1.19,13.87-8.55,14.1-8.14,1,1.78-14.2,10.64-14.2,10.64.88,1.53,14.29-8.63,14.45-8.34.36.62-14.78,10.52-14.73,10.59s14.58-10.38,15.43-8.91-16.12,9.68-15.37,11c1,1.65,13.72-9.56,14.43-8.33.17.29-14,9.85-14,9.85.52.9,12.76-9.74,13.79-8,.1.17-15.48,10.3-15,11.18l15.15-8.75c.91,1.58-14.11,9.89-14,10.15,0,0,14.39-9.31,14.83-8.56S252,216.22,252,216.22s14.76-8.94,14.94-8.63c.27.47-15.3,11.69-15.3,11.69.26.45,14.64-9.23,15-8.65.67,1.15-14.47,10.5-14.45,10.54.36.63,14.88-10.93,15.89-9.17.49.85-15.43,11.58-15.43,11.59l15.43-8.91s-16.16,10.19-15.62,11.14c.24.42,13.67-9.25,14.25-8.23.47.81-15.62,9-14.67,10.61.27.46,14.18-9.49,14.74-8.51.28.48-14.86,9.46-14.1,10.76,0,0,13.58-9.88,14.46-8.35,1.13,2-15.58,11.13-15.58,11.13.75,1.3,16-10.12,16.35-9.44,0,0-16.14,11-15.84,11.55.43.75,15.4-8.89,15.4-8.89.79,1.37-15,11.14-15,11.14L267.41,229c.72,1.25-15.55,10.52-15.19,11.15.95,1.64,14.53-8.4,14.54-8.39.64,1.11-13.95,10.49-13.79,10.75,0,0,14.68-9.57,15.16-8.75s-8.48,7.51-8.48,7.51,6.75-4.92,7.19-4.15c.3.51-3.66,3.81-3.33,4.38,0,0,3.57-2.68,3.84-2.22,0,0-.58,2.78-.58,2.78s.12-.2.18-.1" fill="none" stroke="#00286f" stroke-linecap="round" stroke-linejoin="round" stroke-width="0.7"/><path d="M268.22,25.56c.3.52,13.61-7.86,13.61-7.86s-13,9.8-13,9.8c.12.21,14.2-8.81,14.47-8.35.4.69-13.57,7.73-12.71,9.22,0,0,13.93-8.47,14.11-8.15.35.61-11.6,8-11.08,8.92s12.87-8.08,13.15-7.59c.65,1.13-13.15,7.69-12.41,9,0,0,13.48-9.08,14-8.1.95,1.64-13.47,8.47-12.72,9.77,0,0,13.95-8.73,14.24-8.22.55,1-12.15,8.66-12,9,.91,1.58,13.22-9.39,14-8.07.57,1-13.34,8.38-12.58,9.7s14.32-8.65,14.49-8.36c0,0-12.16,8.77-12.14,8.81.29.5,12-8.41,12.64-7.3,0,0-10.93,8.5-10.65,9,0,0,13.4-8.25,13.62-7.86.46.79-12.23,9.73-12.23,9.73.43.74,13.14-8,13.31-7.69.46.81-12.71,8.8-12.44,9.27l15-8.66S287.43,39,288.35,40.65c0,0,12.44-9.35,13.38-7.72L290,42.17s11.81-8.94,12.72-7.35c.48.83-11.93,8.66-11.93,8.66l14.52-8.39c.08.14-13,10.08-13,10.08.17.29,13.91-8.33,14-8.11.61,1-12.27,8.93-12.27,8.93.48.83,12.7-8.52,13.22-7.63.32.56-11.61,8.19-11.2,8.9.21.36,12.42-9.18,13.29-7.67,0,.06-12.21,9.33-12.17,9.41.54.93,14.19-8.34,14.25-8.23.79,1.37-12.9,8.79-12.46,9.55.29.49,12.87-8.9,13.5-7.8.05.09-11,9.13-11,9.22s12.33-8.92,13.11-7.57c0,0-12.73,7.66-12.1,8.74.31.54,11.82-7.5,12.11-7,.55,1-11.18,8.23-11.18,8.23.56,1,12.29-9,13.14-7.58.27.46-12,7.64-11.29,8.82.5.86,12.34-8.37,12.88-7.44.7,1.22-13,8.61-12.76,9.1.67,1.16,13.94-8.74,14.24-8.22,0,.07-13.2,8.42-12.65,9.39.19.32,13.43-7.75,13.43-7.75.34.59-12.72,9.31-12.72,9.31.33.57,13.81-9.8,14.6-8.43.56,1-11.79,9-11.79,9s12-7.66,12.31-7.1c.49.85-11.17,8.13-10.66,9,.19.33,11.47-7.85,12-6.93.43.74-11.18,7.48-10.73,8.26,0,.06,8.45-6.21,9-5.21l-8.14,7.07c.27.46,7-4.73,7.32-4.22s-5.81,5.9-5.81,5.9c.15.27,4.39-2.79,4.51-2.6s-3.52,3.66-3.36,3.94c0,0,1.5-1.06,1.59-.92" fill="none" stroke="#00286f" stroke-linecap="round" stroke-linejoin="round" stroke-width="0.7"/><path d="M252.56,23.49C253.8,25.63,290,1.59,290.1,1.81c1.39,2.4-37.42,23.52-37.36,23.62,1.39,2.41,37-26.75,39.35-22.72.77,1.34-38.65,24.12-38.65,24.12.51.88,42.12-24.32,42.12-24.32C295.84,3,252,29.93,252,29.93S295-.94,297.65,3.6C299.59,7,250.09,26.54,253,31.54c0,0,26.26-18.65,27.77-16,1.8,3.11-30.31,15.41-28.62,18.35,0,0,28.49-16.71,28.6-16.51,0,0-28.75,16.45-27.87,18,.61,1.05,15.1-8.72,15.1-8.72,1,1.72-15.61,11.19-15.61,11.19.21.36,15.38-8.88,15.38-8.88,1.16,2-15.86,11.62-15.75,11.8.43.74,15.48-8.94,15.48-8.94s-14.83,9.06-14.05,10.4c0,0,13.41-8.73,13.83-8,0,0-14.88,9-13.88,10.74L267,37.06c.93,1.6-14.46,10.49-14.46,10.49.77,1.33,13.77-8.82,14.15-8.17.22.37-13.79,10.52-13.79,10.52s13.83-8.35,14-8.08c.94,1.62-14,10.93-14,10.93.94,1.63,15.32-8.84,15.32-8.84.8,1.39-15.41,10.68-15.41,10.68.53.92,13.3-10,14.3-8.26L252,57.05c.78,1.36,14.39-10.29,15.25-8.8,1,1.65-15,10.34-14.65,11l14.94-8.63c.8,1.38-15,9.71-14.59,10.47.14.24,13.8-9.63,14.52-8.38S251.74,63.81,252,64.27c0,0,14.55-9,14.79-8.54s-13.69,9.79-13.49,10.15C254,67.11,267,58,267,58s-15.27,8.43-14.23,10.23c0,0,14.3-9.69,14.92-8.62.28.48-15.69,9.88-15,11.1.42.72,15-9.21,15.27-8.82.58,1-16,11.09-16,11.1.64,1.1,16.08-9.34,16.1-9.3,1,1.76-16,11.42-15.82,11.76s14.78-8.93,15-8.63c0,0-16,9.34-15,11,0,0,14.08-10.49,15.11-8.72.93,1.61-15.29,11-15.18,11.2.55,1,14.79-9.22,15.09-8.71.78,1.35-14.71,11.11-14.62,11.27.39.68,13.84-9.74,14.6-8.43.54.93-15,10.19-14.93,10.38,0,0,13.77-9.84,14.59-8.42,1,1.77-14.85,9.5-14.35,10.35,0,0,14.85-10.45,15.66-9s-15,11.1-15,11.1c.28.48,13.13-9.27,13.86-8,.6,1-15.37,9.46-14.86,10.34.41.72,14.63-8.45,14.63-8.45.13.22-14.06,9.11-13.72,9.69,0,0,13.39-9.6,14.2-8.2s-15.55,11.69-15.55,11.69c.84,1.45,15.39-9.27,15.56-9,.85,1.47-15.38,9.68-14.76,10.75,0,0,14.32-9.73,15-8.63.13.22-15,11.27-14.93,11.34.6,1,15.41-8.89,15.41-8.89s-16.88,10-15.84,11.81c.21.37,14.48-9.25,14.87-8.58.62,1.07-14.57,11-14.57,11,.47.82,13.38-9.66,14.22-8.21s-14.16,9.85-13.88,10.34c.58,1,13.89-8.2,14-8.06s-14.49,8.62-13.82,9.78c1,1.77,14.41-8.62,14.54-8.39l-14.76,10.28s14.09-9.59,14.72-8.5c.87,1.51-15.6,11-15.6,11,.13.23,16.36-9.44,16.36-9.44.23.4-16.34,12.12-16.34,12.12.37.64,15.6-9.83,16-9.21.82,1.43-15.9,9.79-15.29,10.85,0,0,14.87-8.69,14.91-8.61s-15.13,10.86-15,11.08c.44.76,14.46-9.57,15-8.65.69,1.19-15.69,10.7-15.6,10.86.34.6,13.83-10.38,14.86-8.58,0,0-14.71,10.63-14.65,10.74.22.38,15.26-9.82,15.7-9.06,1.07,1.86-15.75,11.95-15.75,11.95s14.23-9.92,15-8.64c.64,1.11-15.81,9.61-14.85,11.27l15-8.66s-15.35,9.06-14.56,10.44c0,0,14.63-9.62,15.14-8.74,0,0-16.08,9.5-15.17,11.09.62,1.08,13.93-8.8,14.26-8.23,0,0-15.46,10-14.85,11.1.38.66,14.95-10.29,15.67-9,0,0-16.41,9.82-15.45,11.47.07.12,15.7-9.06,15.7-9.06s-15.35,9.74-14.77,10.74c0,.08,15-8.67,15-8.67.92,1.59-16.75,10.94-16.18,11.93,0,0,15.19-10.59,16-9.22,1,1.66-16.06,11.5-16.06,11.5s14-10.32,15-8.66c.48.84-14,10.24-14,10.24.9,1.55,14-8.09,14-8.09s-15,9.77-14.44,10.72,14.11-9.75,14.8-8.55" fill="none" stroke="#00286f" stroke-linecap="round" stroke-linejoin="round" stroke-width="0.7"/><path d="M280.56,15.34c1,1.67,19.55-12.16,19.93-11.51,1.24,2.14-17.6,11.39-17.35,11.82C284.4,17.86,302.76,4,302.89,4.25s-16.3,11.81-16.1,12.17C287.33,17.34,306,3,307,4.76c0,0-18.44,11.65-18,12.45,1.16,2,19.76-11.56,19.83-11.45.59,1-15.32,11.34-15.32,11.34C294.84,19.37,312.83,6,312.83,6c1,1.71-18.37,10.39-17.25,12.35l20.72-12c.1.17-17,10.78-16.19,12.21.34.59,17.75-11.71,18.39-10.62,0,0-17,10.46-16.45,11.41C303.22,21.37,321.8,8,321.8,8c.84,1.46-16.88,11.76-16.69,12.1.69,1.2,19.46-12.11,19.84-11.45s-16.4,12.35-16.4,12.35S326.14,9,326.91,10.34c.89,1.54-15.12,9.92-14.43,11.11s16.92-12.23,18-10.38c0,0-15.77,8.82-14.7,10.68.23.39,17-9.84,17-9.84.78,1.34-14.89,10.44-14.78,10.63,0,0,17.21-11.81,18-10.4.64,1.11-15.62,11-15.62,11,.79,1.37,17.82-10.68,18-10.39,1,1.76-15.64,10.82-15.64,10.82s16.14-11.56,17.11-9.88c0,0-15.32,11.15-15.16,11.43,0,0,17.43-10.61,17.67-10.2,0,0-15.47,9-14.62,10.44.45.77,17.18-11.12,17.7-10.22,0,0-14.49,10.34-14.12,11,.05.09,15.87-10.42,16.42-9.48,0,0-14.84,9.33-14.4,10.09.15.26,15.39-9.94,15.84-9.15,1,1.77-14,10.43-14,10.43s16.73-10.87,17.26-10c0,0-15.55,9.8-14.91,10.91.11.19,16.45-10.47,16.87-9.74.55,1-15.25,9.39-14.64,10.44s16.71-10,16.84-9.72c.35.61-14.34,10.16-14.29,10.24.71,1.23,15.19-10,15.71-9.07.07.12-14.51,8.15-13.63,9.67l15.06-8.7c.57,1-12.94,10.2-12.89,10.28.3.52,15-9.5,15.4-8.89s-13.9,8.63-13,10.26,15.21-10.61,16-9.24c0,0-13.72,9.92-13.48,10.33.43.75,16.15-10.85,16.81-9.71.36.63-13.67,9.28-13.2,10.09l15.65-9S359.49,34.56,359.75,35c.71,1.23,12.44-9.1,13.27-7.66,0,0-7.29,6.1-6.9,6.77s8.12-5.6,8.51-4.92l-6.3,5.94c.13.23,8.15-5.53,8.51-4.91s-5.55,4.5-5.18,5.15,7.88-4.55,7.88-4.55c.38.66-4.5,4.46-4.32,4.77,0,0,5.31-4,5.7-3.29a43.93,43.93,0,0,0-2.9,3.86c.21.37,4-2.73,4.18-2.41s-2.77,3-2.56,3.39,4.57-2.64,4.57-2.64-1.81,3.15-1.7,3.35c.26.46,3.54-2.12,3.57-2.06.13.23-1.52,2.54-1.37,2.79,0,0,3.59-2.17,3.63-2.1.23.39-2.31,4.1-2.31,4.1.24.41,3.92-2.78,4.14-2.39,0,.07-1.52,2.88-1.43,3,0,0,3-2.08,3.18-1.84s-1.6,3.17-1.38,3.54,3.69-2.13,3.69-2.13-2.28,3.31-2.13,3.58,4.16-2.49,4.2-2.42-2.38,4-2.36,4,4.93-3.35,5.15-3-2.79,4.45-2.79,4.45c.22.38,4.42-2.93,4.58-2.65s-2.46,3.95-2.33,4.16,4.63-3.21,4.86-2.81S400.29,50,400.34,50,405,47.18,405,47.32s-5.05,4.38-4.84,4.75,6.08-3.51,6.08-3.51c.32.56-4.3,4.39-4.3,4.39s5.93-3.72,6.05-3.5c.28.48-4.68,4.58-4.44,5s6.22-3.59,6.22-3.59-6.17,5.44-6.12,5.53c.32.55,8.15-4.71,8.15-4.71.12.21-7.65,6.1-7.24,6.8s7.57-5.18,7.92-4.57-6.3,6.17-6.3,6.17c.34.6,8.53-4.92,8.53-4.92s-8.06,6.7-7.75,7.24c.06.1,10.22-6.56,10.5-6.06s-10.16,6.52-9.47,7.72c.51.89,10.88-6.64,11-6.37,0,0-10.35,8.12-10.22,8.35s11.08-8.13,11.83-6.83-12.26,8-11.43,9.41c0,0,11.87-8.62,12.63-7.29l-11.41,9s12.2-9.08,13.08-7.55c.6,1-11.53,8.13-11.08,8.9.72,1.24,12.61-8.8,13.27-7.66.23.39-12.09,8.4-11.69,9.1,0,0,12.15-8.79,12.92-7.46s-12.56,8.44-12.27,8.93c.11.2,13.4-7.73,13.4-7.73.79,1.37-10.84,8.15-10.6,8.55,0,0,12.26-8.21,12.75-7.36.84,1.46-11.85,9.23-11.68,9.52.65,1.12,12.79-9,13.51-7.8L420.86,79.1c.85,1.48,12.07-8.68,12.81-7.39.22.38-10.94,8.12-10.55,8.79.91,1.57,13.18-7.61,13.18-7.61.69,1.2-12.53,8.48-11.85,9.65s13.47-8.65,13.85-8c1.38,2.39-20.12,12.09-19.1,13.85,0,0,19.42-14,20.61-11.9,1,1.65-31.18,18-30,20s29.47-21.25,31.31-18.08c1.43,2.48-31.27,20.44-31.27,20.44,2.12,3.67,31.78-18.91,32-18.49,1.57,2.72-34.6,22.47-34.6,22.47S441.65,79,443.37,82c.05.09-38.83,20.86-37.06,23.92,0,0,36.7-27.48,39.43-22.76,1.93,3.34-43.15,26.06-42.45,27.28,1.88,3.26,43.82-26.79,44.47-25.67,2.94,5.1-50,29.35-49,31.09,0,0,32.29-21.17,33.39-19.28,2.15,3.72-41.49,20.09-38.79,24.76,2.14,3.71,30.32-22.29,32.39-18.7.07.12-38,23.63-37.69,24.15,1.53,2.65,26.42-15.25,26.42-15.25,1.23,2.13-31.28,19.86-31.28,19.86s19.52-14.26,20.81-12" fill="none" stroke="#00286f" stroke-linecap="round" stroke-linejoin="round" stroke-width="0.7"/><path d="M435,94.15c.78,1.36,13.53-8.81,14-8.06.1.18-12.89,9.33-12.53,9.95,0,0,12.92-8.87,13.53-7.81,0,0-12.29,8.9-11.86,9.64.53.92,12.95-8.12,13.23-7.64.71,1.22-13,7.48-12.18,8.87.31.54,13.68-9.15,14.22-8.21.37.64-11.5,9.5-11.5,9.5.77,1.33,12-6.91,12-6.91.61,1.06-13.11,7.39-12.26,8.87,0,0,13.37-9.61,14.19-8.19.44.76-12.69,8.08-11.85,9.53,0,0,11.76-8.85,12.65-7.3.05.09-12.66,8.11-11.8,9.61.21.37,13-9.49,13.89-8,.36.63-12.89,9.16-12.67,9.53.59,1,12.41-8.78,13.11-7.57.41.71-12.12,8.9-11.94,9.21,0,0,13.13-9.21,13.83-8,.27.47-11.51,8.84-11.23,9.32,0,0,11.68-7.81,12.14-7,.24.41-12.67,8.16-12.07,9.21.84,1.46,12.82-8.17,13.16-7.6,0,0-11.42,8.74-11.14,9.22l12.64-7.3c.21.36-11.3,8.93-11.3,8.93.34.59,12.79-8.19,13.14-7.59l-11.57,8.48c.46.8,12.09-8.26,12.65-7.3,0,0-11.87,8.29-11.56,8.83.53.93,10.85-8.09,11.64-6.72l-11,9c.86,1.5,12.28-7.09,12.28-7.09.11.19-10.93,8.23-10.71,8.61,0,0,12-7.42,12.23-7.06.57,1-12.12,7.84-11.6,8.74s12-8.07,12.51-7.23c.32.55-11,8.71-11,8.71.11.19,12.08-7,12.08-7,.83,1.43-12.3,9.34-12.15,9.6s13.32-8,13.43-7.76c.71,1.23-12.44,8.81-12,9.6s13.25-7.69,13.27-7.66c.15.27-12.45,9.1-12.37,9.24.57,1,12.9-9.31,13.71-7.91.58,1-12.82,9-12.58,9.39.64,1.11,13.18-8.94,13.76-7.94,0,0-13.07,8.51-12.52,9.46s12.09-9,13-7.48c0,0-11.64,7.78-11.25,8.47l11.36-6.56c.05.09-11.31,8.05-11,8.6s11.77-7.77,12.19-7c.21.36-12.76,7.65-12,9s13.31-8.38,13.61-7.86-11.58,9.12-11.44,9.38c.45.77,12.84-7.42,12.84-7.42S468.89,142.91,469,143c.63,1.1,12.82-8.39,13.25-7.65.3.52-11,8.62-10.78,9.07.07.13,12.35-7.13,12.35-7.13.4.69-11.65,9.2-11.62,9.25s11.93-7.22,12.07-7l-12.09,8.83c.55,1,12.83-8.24,13.19-7.62,0,0-12.72,9.25-12.62,9.42s13.26-8.44,13.6-7.85c0,0-12.65,9-12.4,9.43.62,1.07,13.54-7.81,13.54-7.81.89,1.55-13.14,9.33-13,9.58s12.79-7.38,12.79-7.38c.79,1.37-12,9-11.75,9.35.43.75,11.8-8.46,12.51-7.22S476,156,476.53,157c0,0,12.43-7.7,12.66-7.31s-12.2,9.14-12,9.53c0,0,12.78-9.36,13.64-7.87.41.71-12.54,8.26-11.87,9.42.14.25,12.85-7.61,12.93-7.46.28.49-13.44,10-13.24,10.39s13.46-8.37,13.72-7.92c.5.86-11.87,8.52-11.47,9.21,0,0,12.37-7.14,12.37-7.14.58,1-11.92,8-11.33,9,.2.35,11.57-6.68,11.57-6.68.16.27-11.32,7.19-10.71,8.24,0,0,11.32-8.25,12.07-7s-10.55,8-10.39,8.31c0,0,9.72-7,10.3-5.95.44.76-8.87,6.39-8.22,7.52,0,0,8.63-6,9.05-5.23.51.89-7.74,6.59-7.74,6.59.4.69,8.12-4.69,8.12-4.69.5.87-8,6.31-7.81,6.68,0,0,9.53-5.66,9.6-5.54.17.29-8.2,5.56-7.71,6.42.07.12,7.09-4.47,7.25-4.19.35.61-7.1,5.18-6.81,5.68s6.74-5.1,7.26-4.19c0,0-6.25,5.38-5.92,5.95s6.47-3.89,6.54-3.78-5,4.56-4.9,4.67,6.2-4.53,6.61-3.82-6.12,5.8-6.12,5.81,6-4.16,6.31-3.64l-5.69,5.61c.27.46,6.19-3.57,6.19-3.57.4.69-4.82,4.31-4.5,4.85,0,0,4.28-3.24,4.61-2.66.19.32-4.07,4.29-3.73,4.89.18.32,4.05-3.06,4.37-2.52,0,.08-4.4,4.68-4.19,5.05.34.59,5.09-3.56,5.36-3.1.07.12-4.53,4-4.25,4.49,0,0,4.17-2.44,4.19-2.42.2.35-4.75,4.71-4.75,4.71s4.59-3.31,4.88-2.82c.16.28-3,4.27-3,4.27l4-2.33c.16.29-3.89,4.62-3.83,4.73.29.5,4.44-2.73,4.51-2.6s-4.89,4.57-4.87,4.6,5.71-3.84,5.95-3.43c0,0-5.62,5.2-5.58,5.26.22.38,5-3.52,5.28-3.05s-5,4.44-4.64,5.11c.23.4,4.73-3.1,4.89-2.82,0,0-6.24,4.63-5.77,5.45.08.14,5.79-3.34,5.79-3.34.14.24-5.73,5.18-5.33,5.87s5.8-4.28,6.2-3.58c0,0-6.14,5.34-5.9,5.77l7-4.06c.13.23-8,5.48-7.53,6.3,0,0,7-5.24,7.5-4.33,0,0-9,7.43-8.88,7.61.36.62,8.88-5.86,9.2-5.31.11.19-9.68,7.49-9.4,8,.49.84,9.63-5.58,9.64-5.56.57,1-10.44,8.15-10.44,8.15s11.27-6.59,11.31-6.53c.67,1.16-13.94,9-13.32,10,.06.11,13.94-8.05,13.94-8.05s-13.82,8.84-13.28,9.77c.26.45,13.69-7.9,13.69-7.9s-15,9-14.35,10.17c0,0,12.8-8.68,13.36-7.71.13.22-13.11,7.95-12.43,9.13.39.67,13.17-8.41,13.52-7.8,0,0-14.64,8.78-13.8,10.24.36.62,13.09-9.38,13.88-8,.92,1.6-14.47,10-14.38,10.12.71,1.24,14.07-10.2,15-8.64,0,0-14.49,8.88-13.5,10.59.83,1.43,13.34-8.23,13.57-7.83.83,1.44-13.89,8.7-13.12,10,.09.15,12.09-8.94,12.94-7.47,0,0-14.75,9.41-14,10.75.67,1.17,14.62-8.87,14.81-8.55.08.15-15.38,9.16-14.54,10.61.74,1.28,13.83-8,13.83-8s-14.36,9.68-14,10.26,14-9.61,14.67-8.47c0,0-15.18,8.35-14.17,10.1.42.73,13.28-9.65,14.14-8.16.77,1.33-14.09,10.67-14.09,10.67.62,1.08,13.79-9.84,14.6-8.43" fill="none" stroke="#00286f" stroke-linecap="round" stroke-linejoin="round" stroke-width="0.7"/><path d="M474.67,250.86s.08-.13.11-.07c.3.51-6.5,5.56-6.21,6.06s10.9-6.29,10.9-6.29S461.72,261.31,462.68,263c1.2,2.09,20.69-11.95,20.69-11.95.68,1.18-20.23,14.15-20.1,14.37l26.18-15.12c.52.91-23.06,15.37-23.06,15.37,1.28,2.22,26.25-15.83,26.54-15.32.93,1.62-24.09,12.51-22.46,15.33,0,0,25.23-17.27,26.4-15.24,1.37,2.38-21.23,14.76-21.23,14.76,2.28,4,35.78-21.69,36.23-20.92.76,1.31-32.81,20.91-32.56,21.33,2,3.52,31.21-21.9,32.89-19,.16.28-29.87,17.79-29.25,18.85,1.53,2.66,29.12-16.81,29.12-16.81,1.23,2.14-27.24,14.92-26.13,16.84,0,0,24-17.83,25.72-14.85L491,265.43c1.11,1.92,20.38-12.35,20.63-11.91.78,1.35-17.36,11.34-16.94,12.07s17-9.84,17-9.84c.42.72-15.17,9.74-14.59,10.75,0,0,15.09-9.5,15.43-8.91l-15.36,11.64c.12.21,14.24-9.74,14.89-8.6L496.62,271.4s14.31-9.33,14.77-8.53c0,0-14.38,9.72-13.79,10.74,0,0,13.38-8.33,13.64-7.88.15.25-14.72,9.69-14.31,10.41.25.43,14.45-9.13,14.79-8.54.53.92-14.81,10.11-14.6,10.47,0,0,14.34-8.3,14.35-8.28s-16.39,9.71-15.5,11.26c0,0,14.94-10.37,15.69-9.06,0,0-16.88,10-16,11.59.54.93,14.76-9.09,15-8.66.8,1.39-14.63,11.33-14.63,11.33.46.8,15-8.63,15-8.63s-15.35,10-14.88,10.82c.65,1.13,14.58-8.42,14.58-8.42s-15.63,10.89-15.48,11.15c.72,1.25,14.94-8.71,15-8.65s-16.45,9.42-15.35,11.32c.38.66,15.64-9.65,15.91-9.19.51.88-16.84,12.51-16.84,12.51s15.36-9.69,15.71-9.07c.58,1-15.57,11.31-15.57,11.31.21.36,16.18-10,16.48-9.51.53.92-18.66,11.15-18,12.34.49.86,16.82-10.63,17.22-9.94.13.22-17.18,12.67-17.18,12.67.83,1.45,15.55-11,16.44-9.49S491.93,307.27,492,307.3c.19.33,17.14-10.09,17.23-9.95.22.38-19.4,11.1-18.33,12.95s17-10.84,17.46-10.08c1.17,2-18.32,10.19-17.18,12.16,0,0,16.67-11.45,17.46-10.08,0,0-19.58,11.35-18.83,12.64s17.54-11.54,18.15-10.48c.3.52-18.41,11.91-17.85,12.87l17.05-9.85c.41.7-18.49,12.76-18.49,12.76,1.1,1.91,17-10.6,17.37-10,.73,1.27-18.5,13.3-18.5,13.3.94,1.62,18-10.38,18-10.38.22.38-18,12.2-18,12.2,1.09,1.89,16.2-12,17.35-10l-18.22,12.5s18.19-10.92,18.37-10.61c1.25,2.16-19.23,13.17-19.05,13.47s18.22-10.52,18.22-10.52c.54.94-18.64,12.52-18.59,12.6s17.92-10.54,18-10.4-20.7,12.55-19.93,13.9c1.24,2.15,18.7-12.32,19.36-11.18,1,1.72-19.43,13.21-19.43,13.21,1.32,2.29,18.59-12.12,19.19-11.08.13.22-22,12.38-20.75,14.51,0,0,18.94-11.83,19.33-11.16.94,1.63-20.7,13.84-20.59,14,0,0,18.84-11.56,19.14-11,1.46,2.53-20.55,14.32-20.55,14.32L499.89,336s-23,14.77-22.52,15.54c1.37,2.38,21.25-12.27,21.25-12.27S476,354.37,476.19,354.67c.3.52,21.41-12.51,21.47-12.4,1.39,2.41-23.67,16-23.67,16,.33.57,20.58-14.79,21.84-12.61,1.51,2.62-22.61,14.62-22.47,14.88.76,1.31,20.37-12.69,20.77-12,.82,1.42-23,14.49-22.7,15,1.41,2.44,20.81-15,22.11-12.77,0,0-23.41,14-22.73,15.16,1.14,2,21.16-12.22,21.16-12.22.72,1.24-23.7,16.09-23.65,16.18s22.36-14.84,23.2-13.39c.65,1.12-24.66,16.31-24.66,16.31.2.35,23.47-13.55,23.47-13.55s-25.89,15.48-25.12,16.81c1.19,2.06,22.89-13.22,22.89-13.22.41.7-27.38,14.21-25.74,17,0,0,24.26-14.24,24.36-14.07,0,0-27.95,16-26.68,18.25,1.73,3,23.16-16.75,24.62-14.22,0,0-28.76,14.76-27.14,17.56,1.76,3,24.37-17.12,25.69-14.83,1.79,3.11-30.05,17.43-28.89,19.44,0,0,25.92-18.46,27.43-15.84.3.53-31.21,20.89-31.21,20.89s27-18.23,28.17-16.27c.49.86-32,18.06-30.93,20,.68,1.17,29.15-19.05,30.12-17.39.17.29-33.86,22.17-33.86,22.17s30-18.26,30.37-17.54c0,0-33.74,21-33.42,21.55,2,3.44,29.44-21.8,31.52-18.2,2.18,3.77-35.18,21.48-34.87,22,.55,1,31.89-21,33-19.05s-36.13,22.67-36.13,22.67c.42.73,32.93-20.29,33.48-19.33" fill="none" stroke="#00286f" stroke-linecap="round" stroke-linejoin="round" stroke-width="0.7"/><path d="M373.37,391.38s15-10.85,16-9.23c0,0-13.64,8.48-12.94,9.7s14-9.3,14.54-8.4l-12.84,10c1,1.76,14.27-10.21,15.12-8.73.14.24-13.7,9-13.08,10.09.71,1.22,14.76-9.36,15.12-8.73.22.38-13.41,10.09-13.38,10.14.61,1.06,14.36-9.21,14.76-8.52s-13.56,9.6-13.56,9.6,14.8-9.52,15.22-8.79c0,0-12.51,9.41-12.45,9.51.57,1,14.26-9.83,15-8.63s-14.5,9.21-13.89,10.28c.27.47,14.93-9.94,15.5-9,0,0-13.06,9.6-12.71,10.21.88,1.52,13.32-8.61,13.72-7.92.78,1.36-12.75,7.65-11.86,9.2l13.65-7.88c.55,1-11.63,8.5-11.63,8.5.19.33,13.6-7.85,13.6-7.85.88,1.53-11.72,9.07-11.7,9.1s13.35-8.57,13.73-7.93c.86,1.49-13.81,8.15-13.07,9.42,0,0,13.67-9.78,14.49-8.37S398,406.5,398,406.5s13.22-9.64,14.09-8.14c.07.13-12.81,9.19-12.8,9.2.5.87,13.8-8.58,14.07-8.12.85,1.47-12.34,7.81-11.66,9,.43.74,11.79-8.92,12.7-7.33.29.5-11.76,7.89-11,9.17s13.42-9.84,14.33-8.27c.79,1.37-12,9.49-11.91,9.68l13.2-7.62c.53.92-11.9,7.56-11.08,9,.13.22,12.73-9.3,13.57-7.84.48.83-12.78,8.68-12.32,9.48.85,1.47,13.07-9.28,13.82-8,.53.91-13.46,8.29-12.81,9.41s12.77-9.57,13.73-7.92c0,0-12.33,8.14-12,8.7.65,1.12,13.06-7.54,13.06-7.54s-12.61,9.22-12.45,9.5c.65,1.13,14.19-9.26,14.65-8.46.37.63-13,9.55-12.7,10.11l14.38-8.3c.91,1.58-12.67,8.79-12.37,9.32s13.31-9.84,14.25-8.23c0,0-13,8.37-12.21,9.72.49.85,13.5-9.35,14.18-8.19s-13,8.85-12.34,10c.44.76,12.94-8,13.16-7.6,0,0-11.28,8.32-11.06,8.69,1.76,3,43.84-25.31,43.84-25.31L422.7,428.08s40.56-25.22,41.34-23.87c1.31,2.27-46.28,28.07-45.68,29.1,0,0,41.23-25.55,42-24.24.59,1-51.41,31.16-50.85,32.14,0,0,46.19-26.83,46.26-26.71,3.05,5.28-56.27,34.63-56.27,34.63s49.78-36.22,53-30.61c2.49,4.31-69.13,41.75-69.13,41.75,2,3.51,63.62-43.69,66.64-38.47" fill="none" stroke="#00286f" stroke-linecap="round" stroke-linejoin="round" stroke-width="0.7"/><path d="M406.7,265.19c.15.25,23.39-13.5,23.39-13.5.23.4-21.95,11.55-20.6,13.87l22.56-13c1.24,2.15-18.33,13.06-18.3,13.12s18.89-12.21,19.46-11.23l-15,10.95c.24.41,15.63-11.41,16.67-9.62.11.19-12.32,9.57-12.19,9.8.46.8,12.28-8.44,12.87-7.43.23.39-7.76,6.81-7.76,6.81s9.72-5.93,9.86-5.69-7,5.79-6.82,6.07,7.91-4.57,7.91-4.57c.29.5-3.76,4.17-3.76,4.17.41.71,5.87-3.78,6-3.49s-2.54,3.81-2.42,4c0,0,3.16-2.28,3.36-1.94,0,0-.27,1.93-.26,1.94l1.76-1" fill="none" stroke="#00286f" stroke-linecap="round" stroke-linejoin="round" stroke-width="0.7"/><path d="M379,135.82s1.55-.9,1.55-.9c.25.43-4.9,4.56-4.9,4.56s5.43-3.41,5.55-3.21c.66,1.15-11.34,8.39-11.07,8.86.06.1,10.81-6.29,10.83-6.25.75,1.31-12.48,8.53-12.15,9.1,0,0,13.24-7.91,13.35-7.71,0,0-13.23,9-13,9.46.35.61,12.84-9.26,13.64-7.88.24.41-12.27,8.82-12.27,8.82l12.32-7.11c.69,1.2-12.81,8.22-12.32,9.06,0,0,13-8.35,13.36-7.71,0,0-12,9.31-11.8,9.7s13.21-8.07,13.4-7.74c.51.88-13.87,9.23-13.37,10.09,0,0,13.87-8.09,13.91-8s-13.56,9.19-13.12,10c0,0,12.9-7.87,13.08-7.55.89,1.54-12.68,8.39-12.33,9s12.63-8.36,13.1-7.56c.37.64-13.32,8.57-12.65,9.74,0,0,13.53-8.65,13.89-8,.52.9-12.33,9.22-12.33,9.22.86,1.48,12.4-8.26,12.88-7.43.3.53-13.14,10.27-13.12,10.29.6,1,13.21-7.79,13.28-7.67.38.66-12.12,8.79-12.1,8.82.48.83,12.26-7.08,12.26-7.08.69,1.2-11.65,9.08-11.65,9.08.26.45,13.54-7.82,13.54-7.82.72,1.24-13.56,8.61-13.12,9.38.64,1.11,12.17-8.77,12.93-7.46.23.39-12.07,9-12.07,9,.85,1.47,11.77-8.17,12.37-7.14S378.29,175,378.29,175l12.91-7.45c.6,1-12.06,9.33-12.06,9.33.3.51,13.38-8.91,13.89-8,.21.37-12.77,10-12.77,10,.87,1.5,11.85-8,12.34-7.12S379.76,180.6,380,181c.75,1.29,13.36-9.73,14.23-8.22s-14.24,10.13-14,10.6c.65,1.13,13.82-8.07,13.86-8s-12.27,8.5-11.89,9.15c.5.86,11.49-7.31,11.78-6.8.74,1.27-12.15,9-12.07,9.1s13-9.59,13.92-8c.18.32-13.8,10.18-13.8,10.18s13.6-8.38,13.83-8c.1.17-13.82,8.08-12.88,9.7.46.8,12.56-7.25,12.56-7.25l-11.77,9.37c.21.37,12.91-9.11,13.63-7.87.57,1-14.71,8.26-13.8,9.85.43.74,13.07-9,13.71-7.92.89,1.54-13.63,9.47-13.33,10s13.92-8.13,14-8.06l-12.36,9.85c.72,1.25,13.08-7.67,13.13-7.58s-14.58,8.41-13.81,9.73c0,0,12.86-8,13.09-7.56l-12.17,9.44c.24.42,12.89-9.38,13.73-7.93,0,0-14.68,9.18-14.15,10.1.67,1.17,14.57-8.41,14.57-8.41,1,1.65-13.86,8.88-13.15,10.11.88,1.52,13.27-7.88,13.36-7.72.56,1-12.92,9.49-12.9,9.51.2.34,12.2-7.35,12.33-7.12s-13,8.55-12.35,9.65c.52.9,12.26-8.84,13-7.52l-12.37,9.75s11.89-8.24,12.49-7.21c.7,1.21-13.88,8.27-13.15,9.53.45.77,14.22-8.21,14.22-8.21s-14,9.93-14,9.93c.6,1,14.41-9.2,14.79-8.54.64,1.12-13.36,9.73-13.36,9.73.5.87,13-9.56,13.9-8,0,0-14.79,9.56-14.2,10.58s13.71-8.41,13.93-8c.52.9-14,8.24-13.09,9.85s13.66-8.73,14-8.1c.68,1.17-14.54,9.23-13.82,10.48.42.73,12.78-8.23,13.15-7.59.19.33-13.58,8.87-13.13,9.65.26.44,13.65-8.62,14-8.06,1,1.68-13.51,10.08-13.36,10.34s13-7.51,13-7.51c.75,1.3-15.3,8.28-14.28,10,.37.65,15.35-8.86,15.35-8.86s-14.47,9.05-13.79,10.22c0,0,13.38-9.39,14.1-8.14,0,0-14.9,8.12-13.9,9.86.65,1.13,13-7.5,13-7.5s-14.26,9.94-14.25,10c.87,1.51,13.59-10,14.55-8.4s-14.06,8.69-13.22,10.15c.36.63,12.73-8.21,13.1-7.56.92,1.59-14.35,10.56-14.14,10.91s14.33-8.31,14.35-8.29-13.28,9.34-13,9.88c.07.13,14.51-8.37,14.51-8.37l-14.87,10.38s12.94-9.1,13.65-7.88c0,.08-14.14,9.91-13.89,10.33.57,1,14.07-9.87,14.82-8.56.6,1-14.35,9.07-13.81,10,0,0,13.46-8.74,13.88-8" fill="none" stroke="#00286f" stroke-linecap="round" stroke-linejoin="round" stroke-width="0.7"/><path d="M287.87,251.08s.2-.12.21-.12l1.12,2c.11.19,2.7-2,2.88-1.66s-.57,2.49-.47,2.66,4.19-3.24,4.55-2.62c.15.25-3.35,3.19-3.09,3.64s6.76-4.7,7.11-4.11c0,0-6.05,5.4-5.87,5.71s9.44-5.45,9.44-5.45c.1.17-7.51,6.64-7.51,6.64.85,1.48,11.4-6.58,11.4-6.58s-11.68,7.05-11,8.15c.91,1.58,14.24-10.37,15.17-8.76,0,.09-14,9-13.21,10.25,1.23,2.13,16.46-9.58,16.49-9.52.24.41-16.69,10.22-16,11.38,0,0,19.34-12.88,20.08-11.59.23.4-20.37,10.87-19.2,12.91,0,0,21.43-13.78,22-12.73S301.45,264.77,301.57,265c0,0,24.25-14.7,24.55-14.17,1.15,2-21.48,13.53-20.89,14.55,1.39,2.4,25.87-14.94,25.87-14.94S310.22,265,310.36,265.18c1.54,2.67,24.7-14.26,24.7-14.26s-22.35,14.73-22.31,14.81c.68,1.19,24.87-15.72,25.46-14.7.92,1.59-21.28,14-21.24,14.1l24.72-14.27c1.1,1.9-22.13,14.4-22,14.55,1.54,2.67,25.21-16.09,25.87-14.94,1.48,2.56-23,12.39-21.56,14.9,0,0,25.57-15.23,25.77-14.88.93,1.62-20.58,14.67-20.58,14.67,1.49,2.58,23.89-15.52,24.64-14.22,0,0-22.24,14.42-22,14.93s25.9-15.13,26-15-20.49,14.2-20.49,14.2c1.25,2.16,24.94-14.4,24.94-14.4s-21.77,12.73-20.59,14.77c0,0,24.43-15.29,24.95-14.4,1.14,2-21.18,14.36-20.93,14.78,1.56,2.71,25.09-18,26.61-15.36,1,1.8-21.78,14.15-21.32,14.95,1.29,2.24,25.22-16.57,26.1-15.07,1.08,1.88-21.75,15.17-21.75,15.17.29.5,26.2-15.13,26.2-15.13.09.16-22.33,13.34-21.36,15,.45.78,24.95-15.69,25.5-14.73,1.52,2.64-22.85,13.16-21.73,15.1.29.51,24.91-17.19,26.13-15.09.69,1.19-21.2,14.22-21.2,14.22,1.36,2.36,36.71-21.2,36.71-21.2,2.22,3.85-34.61,21.87-34.5,22.05s34.86-20.13,34.86-20.13c2,3.46-31.21,16.56-29.61,19.33.25.44,27.6-20.29,29.48-17l-25.88,17.6c.91,1.58,26.41-15.25,26.41-15.25.86,1.49-23,13.21-22.05,14.84,1.09,1.89,22.9-16.19,24.19-14,.87,1.51-20.51,14-20.51,14,1.18,2,23.91-16.26,25-14.42.06.1-23.21,14.12-22.66,15.07,1.47,2.55,25.94-16.46,26.58-15.35.22.38-26.78,16.14-26.26,17,.43.75,28.75-16.6,28.75-16.6.44.76-28.83,18.75-28.49,19.32,2.34,4.05,32.79-19.75,33.14-19.14,0,0-36.15,17.21-33.8,21.28,2.25,3.9,36.75-21.22,36.75-21.22.84,1.45-36.11,22.05-35.79,22.6,0,0,38.8-23.36,39.22-22.64,0,0-42.88,21.23-40.54,25.29.13.22,15.42-9,15.48-8.94.88,1.53-14.94,9.63-14.36,10.63s13.78-9,14.23-8.22c1.09,1.89-14.74,11.35-14.74,11.35s14.35-10.29,15.22-8.78c0,0-16.14,9.67-15.25,11.22l14.77-8.53c1,1.68-16.79,9.56-15.72,11.41.57,1,15.31-10.47,16-9.25.58,1-16.36,10.47-16,11.16.51.89,15.37-11.1,16.33-9.43.12.2-16,11-16,11,.24.42,14.57-9.89,15.21-8.78.42.73-16.82,10.56-16.19,11.65,0,.06,14.75-10.77,15.72-9.08,0,.06-16.4,10.13-15.69,11.36s14.54-9.51,15-8.67c.8,1.39-17.06,9.32-16,11.21,0,0,15.4-10.49,16.09-9.29.1.18-16.88,10.63-16.4,11.47.68,1.17,14.95-11,16-9.21,0,.08-16.42,10.32-16,11,.16.27,15.71-10.28,16.23-9.37.36.62-16.72,11.68-16.72,11.68,1.07,1.85,16.22-9.37,16.22-9.37.17.3-16.31,11.32-16,11.78.68,1.17,15.56-11,16.44-9.49l-16.94,11.6c.24.42,15-9.91,15.55-9,.23.4-18,10.7-17.09,12.29s17.24-10.79,17.61-10.17c0,0-18.85,10.71-17.56,12.95.19.33,16.22-11.83,17.29-10,.18.32-18.57,12.17-18.44,12.39.51.88,16.81-11.67,17.66-10.2,0,0-18.37,11.26-17.81,12.23.32.56,17-10.67,17.39-10,0,0-19.29,11.32-18.45,12.77.64,1.1,17.41-10.05,17.41-10.05s-18.76,10.8-17.55,12.9c.74,1.28,17-10.05,17.1-9.87.62,1.07-19.22,11-18.07,13,.94,1.62,17.25-11.26,17.81-10.29,1.3,2.25-19.17,12.92-19.17,12.92.54.94,17.8-12.73,18.86-10.89,1,1.68-18.51,12.92-18.46,13l17.24-10c.63,1.1-18.36,11.51-17.75,12.56.24.41,18-10.38,18-10.38,1.23,2.13-21,11.77-19.94,13.7,0,0,17.29-12.78,18.5-10.68,0,0-19.39,12.2-18.59,13.59,0,0,18.26-11.36,18.61-10.75.08.13-19.63,13.43-19.63,13.43s16.52-12.46,17.78-10.27c1.17,2-20,10.52-18.69,12.86,1.09,1.89,17.88-13,19-11,.85,1.48-22.07,12.86-21.14,14.47.46.79,20.32-12.32,20.57-11.88,1.33,2.3-21.76,14.18-21.3,15,1.31,2.28,18.67-13.83,20-11.54,0,0-21.67,14-21.3,14.62.18.31,19.43-13.76,20.53-11.86.55,1-21.18,14.83-21.18,14.83s19.74-12.52,20.23-11.68c.15.26-23,12.4-21.7,14.61.47.82,18.85-12.68,19.63-11.33.19.33-20.77,13.72-20.55,14.1,1.11,1.92,19.61-12.82,20.26-11.7,1.07,1.86-22.23,14.49-22.15,14.63.35.61,22.1-12.88,22.15-12.79" fill="none" stroke="#00286f" stroke-linecap="round" stroke-linejoin="round" stroke-width="0.7"/><path d="M266.94,360.32c1,1.69,22.19-14.25,22.81-13.17.28.48-18.91,13-18.78,13.24,1.39,2.4,20.75-12.53,21-12.11.66,1.14-19.09,10.56-17.89,12.64.71,1.22,21.2-14.1,22-12.7.23.4-16.93,12.27-16.81,12.48s20-11.57,20-11.57-17,11.14-16.41,12.15c.21.36,20.52-11.85,20.52-11.85s-16.16,12.19-16.16,12.19c1.33,2.29,17.55-12.67,18.65-10.77.26.44-15.35,11.61-15.35,11.61.76,1.31,18.89-11.22,19-11,.36.63-15.45,11.27-15.45,11.27.47.81,18.26-10.54,18.26-10.54s-16.87,9.9-16.12,11.19c.06.11,19.33-11.16,19.33-11.16.45.78-16.09,11.7-16.09,11.7s18.42-12.37,19.17-11.07L301.9,364.56c.7,1.21,19-11,19-11s-16.54,11.91-16.46,12c.28.49,18.14-11.68,18.66-10.77.25.44-14.93,10.19-14.6,10.77,1,1.79,18.45-11.24,18.7-10.8,0,0-16.74,11.86-16.7,11.93.15.27,17.32-11.7,18.06-10.43.9,1.56-15.95,11-15.91,11,.66,1.14,17.84-12.91,19-11,.69,1.2-15.71,10.83-15.41,11.35.16.27,18.24-10.53,18.24-10.53s-15.82,10.94-15.76,11.06c.7,1.22,16-11.3,16.91-9.76,1,1.75-13.75,10.34-13.75,10.34.91,1.58,16.36-10,16.59-9.58.58,1-14.17,9.83-13.78,10.49.69,1.2,16.75-10.24,17-9.81.88,1.52-15.81,9.49-14.94,11,0,0,16.59-10.51,17-9.81,0,0-15.41,10-15,10.68,0,0,16.88-9.89,16.94-9.78s-13.55,9.85-13.45,10c1.12,1.94,15.75-11.16,16.64-9.61.51.88-13.72,9.87-13.37,10.47.87,1.51,14.66-11,15.76-9.1,0,0-14.58,9-14.06,9.9,0,0,15.43-11.09,16.37-9.45.69,1.2-14.67,10.55-14.67,10.55.8,1.39,14.87-11.2,16-9.24.41.71-13.83,9.22-13.61,9.6.57,1,15.76-9.1,15.76-9.1.81,1.41-13.4,10.58-13.4,10.58.62,1.08,17.16-9.9,17.16-9.9.84,1.46-14.76,10.33-14.31,11.11,0,0,16-10.09,16.35-9.44,0,0-14.19,9.35-13.57,10.43l16.12-9.31c0,.07-15.12,9.56-14.67,10.34,1.87,3.24,37.37-21.58,37.37-21.58l-34.53,22.59c1.06,1.84,32.38-19.15,32.57-18.81s-31.7,18.53-30.71,20.25c0,.07,28.54-21,30.49-17.61.62,1.07-28.68,14.86-26.77,18.16.13.22,25.23-14.57,25.23-14.57.69,1.2-24,15.5-23.92,15.64l22.88-13.21c1.41,2.45-26.31,13.41-24.65,16.3,0,0,22.73-13.85,23-13.3.73,1.26-25.85,15-24.75,16.92.34.59,20.85-15.61,22.4-12.93.88,1.53-26.57,14.07-24.94,16.9,1.12,1.93,25.89-18.53,27.44-15.84,0,0-29.91,18-29.23,19.2,1,1.66,29.49-21.12,31.26-18,2.24,3.88-34.27,20.68-33.47,22.08,1.87,3.24,34.41-24.79,36.55-21.1,1.55,2.69-42,21.32-39.58,25.52,1.52,2.63,25.34-14.63,25.34-14.63.34.58-28.26,17.42-27.52,18.7,1.19,2.07,25.86-14.93,25.86-14.93.74,1.28-29.1,19.09-29.1,19.09.67,1.16,27.13-15.67,27.13-15.67,1,1.75-30.6,20.43-30.6,20.43s28.61-16.75,28.71-16.58c1.91,3.31-30.34,19.65-30.34,19.67s26.6-19,28.16-16.26c1.19,2.06-34.12,19-32.74,21.43,0,0,30.63-18.2,30.86-17.82,1,1.81-33.3,21.21-33.3,21.21l31.12-18c1.6,2.78-36.56,18.21-34.35,22,2,3.54,31.36-19.23,31.85-18.39S321.61,440,322,440.71l33.07-19.09c.65,1.12-36,22.53-36,22.53,2.27,3.93,34.36-19.84,34.36-19.84,2.11,3.66-39.38,25-39.38,25,2.52,4.37,35.23-22.13,36-20.79,2.19,3.79-44.13,21.61-41.37,26.4,2.21,3.83,38.58-22.27,38.58-22.27s-47.11,23-44.4,27.67c.66,1.14,38.19-28.15,40.83-23.57,2.07,3.58-48.29,30.33-48.29,30.33.26.45,43-30.43,45.43-26.23.78,1.36-57.57,29.81-54.92,34.39,2.1,3.65,51-29.46,51-29.46,1.05,1.82-64.27,39.45-64.27,39.45,1.19,2.06,57.38-39.73,60.24-34.78" fill="none" stroke="#00286f" stroke-linecap="round" stroke-linejoin="round" stroke-width="0.7"/><path d="M271.49,346c0,.08.34-.27.37-.21.29.5-5.32,4.95-5.2,5.15,0,0,7.75-5.54,8.21-4.74.36.63-13.4,10-13.4,10,.84,1.45,16.85-10.14,17-9.83" fill="none" stroke="#00286f" stroke-linecap="round" stroke-linejoin="round" stroke-width="0.7"/><path d="M158.29,380.64s50.92-36.69,54.08-31.22c0,0-43.32,23.85-42,26.15,1.22,2.12,47.27-27.29,47.27-27.29.58,1-37.44,22.73-37,23.5,2.61,4.52,41.72-24.09,41.72-24.09,2.12,3.67-33.91,21.9-33.91,21.9,1.14,2,36.3-27.05,38.94-22.48,2.08,3.6-31.94,17.14-30.41,19.79,0,0,33.67-22.12,34.83-20.11,0,0-26.86,18.09-26.75,18.28,2.12,3.68,32.84-20.63,33.56-19.38,0,0-28.19,18-27.9,18.48l32.41-18.71c1.66,2.87-29.26,14.72-27.53,17.72.83,1.43,28.51-20.45,30.24-17.46,1.11,1.92-25.74,14.25-24.38,16.61.55.95,25.62-17.57,26.83-15.49s-22.25,12.79-21.17,14.66c0,0,20.6-15.39,22.11-12.77.39.68-19.07,11.67-18.45,12.76,1,1.71,20.08-13.21,20.78-12,.57,1-15.56,9.69-14.72,11.14.48.83,15.41-10,15.88-9.17,0,0-11.68,7.85-11,9s12.41-7.16,12.41-7.16c.27.46-9.59,7.31-9.55,7.39.68,1.17,11.9-6.87,11.9-6.87s-7.81,6.31-7.78,6.35c.3.52,7.73-5.19,8-4.65.19.33-5.53,5-5.22,5.56l7.22-4.17c.12.2-7.31,5.09-6.77,6,.87,1.51,27.49-18.69,28.71-16.58.77,1.33-28.39,19.17-28.39,19.17,1.3,2.26,31.65-18.27,31.65-18.27,1.22,2.11-34.5,17.88-32.78,20.85.34.58,35.27-23.38,36.58-21.12,2.42,4.19-37.21,22.29-36.53,23.46.55,1,15.47-9.21,15.59-9,1,1.71-16,9.53-15,11.24.31.54,14.76-10.75,15.72-9.08.23.39-16,11.72-16,11.72s14.46-9.71,15.05-8.69c.17.3-14.64,9.25-14.2,10,.82,1.42,13.43-9,14-8.06,1.06,1.84-15,9.65-14.38,10.74.37.65,14.37-8.3,14.37-8.3.5.87-15.52,8.75-14.55,10.43.26.45,13.62-10.23,14.64-8.46.7,1.21-15.33,9.81-14.69,10.92,0,0,13.72-9.55,14.43-8.33.16.28-14.76,10.23-14.51,10.65.61,1.06,14.81-10.52,15.67-9,.6,1-16.12,11.27-16.12,11.27.94,1.63,16.38-9.46,16.38-9.46.84,1.46-15.78,10.45-15.44,11.06.44.77,14.08-8.59,14.28-8.25.59,1-15.52,10.18-14.92,11.21,0,0,15-10.9,16-9.21s-15,11.24-15,11.24c.16.28,14.85-8.86,15-8.65.45.78-15.34,10.61-15.17,10.89,0,.08,14.76-9.36,15.13-8.73,1,1.69-16,8.69-15,10.48,0,0,13.54-8,13.61-7.86,1.1,1.91-15.95,9.7-14.91,11.49,0,.06,15.52-10.91,16.37-9.45s-16.33,12.2-16.33,12.2,15.31-9.55,15.61-9-15.18,10.81-15.18,10.81c.22.39,15.39-9.93,15.84-9.15.91,1.58-15.19,11.25-15.19,11.25.65,1.13,13.41-9.72,14.27-8.24,0,0-16.32,9.68-15.55,11l16-9.23-16.08,11.7s14.88-9.48,15.27-8.81c0,0-15.12,9.9-14.62,10.76,0,0,14.74-10.21,15.47-8.93,0,0-16,9.43-15,11.13.82,1.43,14.15-8.72,14.38-8.3.83,1.44-16.19,9.79-15.43,11.09,0,.06,15.13-10.15,15.74-9.09.43.74-14.8,10.63-14.8,10.63.36.62,15.07-8.7,15.07-8.7s-15.22,9-14.54,10.19c.94,1.62,15-8.64,15-8.64.92,1.59-16.17,9.31-15.36,10.71.69,1.2,14.19-8.19,14.19-8.19s-16,10-15.29,11.31c.66,1.15,15.45-9.06,15.51-9,.68,1.17-16.24,9.79-15.28,11.44.15.27,14.82-10.41,15.62-9,.5.87-16.1,9.15-15,11,0,0,15.56-9.06,15.59-9,.85,1.47-16.36,12.3-16.36,12.3s14.35-10.3,15.22-8.79c.37.64-15.32,9.66-14.43,11.21,0,0,13.72-10.24,14.73-8.5.7,1.21-15.45,11.43-15.45,11.43s14.18-9.67,14.83-8.56c.19.34-15.09,10.67-14.86,11.07s14.62-9.6,15.12-8.73c.13.23-15.91,10.06-15.2,11.29.1.17,14.77-9.39,15.14-8.74.77,1.33-14.15,10.43-14.08,10.55s14.32-8.8,14.55-8.4c.46.79-14.58,10.78-14.58,10.78s14.39-9.84,15.05-8.69-14.84,11.09-14.69,11.34c.41.72,14.62-8.44,14.62-8.44.81,1.41-15.41,9.69-14.67,11L266.55,449s-15.44,9.48-14.9,10.42c.29.51,14.25-9.14,14.64-8.46,1,1.79-15,9.34-14.5,10.21,0,0,13.57-9.69,14.37-8.3,1,1.71-14.87,9.73-14.44,10.48.82,1.42,14.37-8.3,14.37-8.3.67,1.15-14.5,11.1-14.5,11.1.28.48,13.39-9.84,14.31-8.26s-14.86,9.45-14.1,10.77c0,0,14.11-9.79,14.82-8.56.54.93-16.23,9.48-15.19,11.27,0,0,13.5-9.77,14.35-8.29L251,474.53c.89,1.55,15.83-9.63,16-9.26s-15.67,10-15.09,11l14.92-8.62c.47.82-16.67,10.45-16,11.58.3.52,15.32-10.92,16.22-9.36,0,0-16.56,10.67-16.08,11.49.06.1,15.08-10.85,16-9.25,1.09,1.88-16,10.06-15.39,11.08.9,1.55,13.62-9,14.09-8.14,1,1.76-14.85,10.73-14.82,10.78,1,1.65,14.54-10.08,15.27-8.82.24.41-15.29,10.21-15,10.62l15-8.68-14.68,10.77c.65,1.13,14-9.49,14.6-8.43" fill="none" stroke="#00286f" stroke-linecap="round" stroke-linejoin="round" stroke-width="0.7"/><path d="M146.27,356.11l0,0c0,.07.45,2.34.54,2.5s.44-.3.46-.27a26.26,26.26,0,0,0-1,2.61s.62-.46.67-.38-.72,2.38-.66,2.48,1.59-1,1.62-.93c.2.35-1.88,3.23-1.69,3.56,0,0,3.11-2.05,3.22-1.86,0,0-2.24,3.47-2.21,3.52.19.33,2.86-1.69,2.88-1.66s-3.8,4.09-3.67,4.31c.34.58,4.66-3,4.78-2.76,0,0-5,5.58-5,5.61s18.86-12.91,19.73-11.39c.48.83-21.44,11.82-20.21,14,.87,1.51,30.78-17.77,30.78-17.77l-31.31,20,38-21.94s-39.62,24.06-39.2,24.8,45.75-27.64,46.28-26.72c3.06,5.3-50.6,28.42-49.09,31l56.91-32.85c1.67,2.89-61.94,28.76-58,35.6,2.79,4.83,62.45-40,64.15-37,.21.37-62.16,37.43-61.86,38,3,5.27,67.84-39.35,67.92-39.21S144,388.84,144.21,389.27c0,0,12.81-8.2,13.16-7.6s-13.79,8-12.94,9.49c.51.88,13.08-8.59,13.53-7.81s-11.91,9.38-11.8,9.58l12.19-7c.62,1.07-11.69,7.31-10.9,8.68.44.76,11.2-8.22,12-6.91,0,0-11.9,7.27-11.12,8.61.53.91,11.26-8,11.89-6.86.29.49-11.31,8.9-11.31,8.9.82,1.42,11.61-8.1,12.22-7.05s-11.93,8.81-11.51,9.53,13.29-9.09,13.9-8c.44.77-13.16,9.61-13.16,9.61s12.51-8.19,12.93-7.47c0,0-12.11,8-11.7,8.67.72,1.24,12.35-9.1,13.2-7.62.19.33-12.47,10-12.47,10s13.44-9.62,14.25-8.23c0,0-12.47,9.54-12.36,9.72.61,1.06,13-8.15,13.29-7.67.08.14-12.51,9.79-12.41,10s13.83-8,13.83-8c.44.76-12.34,8.34-12,8.92.54.94,11.21-7.89,11.82-6.83.33.57-11.37,8.84-11.19,9.14.65,1.13,12.88-8.1,13.17-7.6,0,0-12.36,9.3-12.21,9.55s12.09-7.8,12.45-7.19c.66,1.14-11.57,8.49-11.57,8.49s13-9.17,13.7-7.91c.14.24-12.48,8.59-12.22,9,0,0,11.22-8.12,11.94-6.89,0,0-12.1,8.16-11.51,9.16s12.31-8.55,12.94-7.47c0,0-11.47,8.68-11.25,9.06.41.72,11.32-8.3,12.09-7,0,0-11.59,8.16-11,9.19.77,1.33,12.4-8.58,13-7.51,0,0-13.17,8.25-12.6,9.25,0,0,14-8.77,14.28-8.25.73,1.26-12.84,7.42-12.09,8.73s12.67-7.67,12.83-7.41c.92,1.59-13.44,8.38-12.89,9.33,0,0,13.69-8.23,13.83-8,0,0-12.48,9.28-12.31,9.57.06.1,13.06-8.42,13.44-7.76L170,430.79s12.23-8.68,12.93-7.47c.52.9-11.64,8.36-11.42,8.73.49.84,11.92-6.88,11.92-6.88.1.17-11.39,8.51-11,9.19.17.29,12.43-8,12.77-7.37.21.37-11.24,8.62-11.24,8.62l12.11-7c.32.55-12.6,7.76-12.06,8.7,0,0,12.95-7.93,13.14-7.59.52.91-13.35,7.82-12.45,9.38.6,1,12.82-7.52,12.87-7.43.81,1.4-11.69,7.31-11,8.44.38.66,12.92-8.37,13.32-7.69.29.51-11.66,8.89-11.66,8.89s11-8.05,11.76-6.79c.47.82-11.41,7.86-10.74,9,0,0,11.82-7.6,12.16-7,.44.77-10.76,7-10.21,8s11.52-7,11.69-6.75c.76,1.32-11.13,8.25-10.7,9,.61,1.06,12.62-7.44,12.69-7.33.66,1.14-11.53,7.36-11,8.34l12-7s-12.18,8.67-11.81,9.33c.14.23,13.74-7.93,13.74-7.93.29.51-11.14,9.15-11.14,9.15.26.45,11.1-8.34,11.94-6.89.47.81-11.27,9.05-11.27,9.05.69,1.19,13.21-9.33,13.94-8.05.9,1.55-12,9.19-12,9.19.51.89,11.92-7.79,12.31-7.11s-12.32,7.19-11.58,8.49c0,0,12.89-8.72,13.44-7.76,0,0-12.42,9.12-12.39,9.16.8,1.38,13.52-7.81,13.52-7.81.13.23-11.92,8.12-11.32,9.16L206,451.51c.85,1.46-11.67,7.82-11,9,.16.28,11.42-8.53,12.26-7.08.59,1-11.36,8.52-11.36,8.52s11.89-7.79,12.29-7.1-10.88,8.29-10.78,8.47c.83,1.44,11.89-7.26,12.06-7s-11.62,9.17-11.62,9.17c.34.58,12.86-8.06,13.14-7.58.08.13-11.35,7.75-10.68,8.9.12.21,12.07-8.08,12.55-7.25,0,0-12.47,8-12,8.77.82,1.43,13.62-8.58,13.93-8,0,0-11.78,9.23-11.75,9.29.68,1.17,12.51-7.61,12.68-7.32.3.51-12.38,8.26-11.67,9.5.33.58,13-7.88,13.18-7.61s-11.72,7.53-11,8.77c.52.89,12.75-9.23,13.56-7.83.47.81-12.59,9.46-12.59,9.46.37.65,13.23-9.12,13.87-8,.5.87-12,9.41-11.85,9.65.77,1.34,13-9.08,13.7-7.91.76,1.32-12.3,7.59-11.56,8.87.28.48,12.44-7.67,12.65-7.3,0,0-11.46,8.76-11.14,9.3,0,0,13.3-9.6,14.13-8.16s-12.36,8.37-11.7,9.5,12.73-7.7,12.88-7.44c0,0-11.31,8.59-11.27,8.65s11.87-8.08,12.4-7.16S217.63,482.31,218,483c.71,1.23,13.38-8.9,13.88-8,.17.29-12.12,9.62-12.12,9.62s12.5-8.09,12.87-7.43c.57,1-12.42,7.75-11.82,8.78.94,1.63,14.44-8.34,14.44-8.34.85,1.48-13.92,7.82-13,9.37.63,1.08,13.33-9,13.9-8,0,0-13.83,8.47-13.25,9.49,0,0,13.57-8.59,13.9-8s-11.69,7.45-11,8.63c.17.29,12.59-7.51,12.69-7.33s-11.87,9.47-11.87,9.47c.76,1.31,13.29-9.83,14.22-8.21,0,0-11.92,8.62-11.62,9.14,0,0,12.62-8.24,13-7.52,0,0-12.52,7.89-12,8.72s14.25-8.23,14.25-8.23c.59,1-13.4,7.7-12.48,9.3,0,0,12.9-9.35,13.72-7.92,0,0-12.78,9.17-12.68,9.34,0,0,14-9.86,14.8-8.54" fill="none" stroke="#00286f" stroke-linecap="round" stroke-linejoin="round" stroke-width="0.7"/><path d="M79.83,414.47l.58-.33" fill="none" stroke="#00286f" stroke-linecap="round" stroke-linejoin="round" stroke-width="0.7"/><path d="M129.54,265.43c.44.77,25-15,25.2-14.55,0,0-23.17,12.16-21.64,14.82.36.62,25.4-16.29,26.11-15.07l-22.57,14.93c.31.54,25.35-14.64,25.35-14.64s-21,14.52-20.8,14.8c.51.88,25-14.41,25-14.41,1,1.75-21.15,14.35-21.15,14.35,1.58,2.73,26.17-15.11,26.17-15.11,1.38,2.39-22,14.13-21.7,14.74,1.47,2.55,23.13-17.08,24.75-14.29,1.41,2.45-23.39,12.2-22,14.55.35.61,25.44-14.77,25.47-14.71.48.83-21.66,14.68-21.66,14.68s24.59-15.21,25-14.45c0,0-22.8,11.51-21.31,14.1,1.14,2,23.55-16.64,24.87-14.36.14.24-22.27,12.79-21.42,14.28,0,0,23.57-14.29,23.87-13.78.17.3-21.78,11.89-20.5,14.11.51.89,24.2-17.32,25.66-14.81.42.73-20.73,14.76-20.73,14.76.1.18,25.46-14.7,25.46-14.7.13.23-22.22,14.91-22.1,15.11.9,1.55,24.87-14.62,25-14.42,1.11,1.93-20.8,13.52-20.66,13.75.22.39,23.87-15.9,24.79-14.31.51.88-23,14.92-22.88,15.1,0,0,25.56-14.88,25.61-14.79.24.41-21.8,14.71-21.8,14.71.7,1.2,24.64-16.46,25.61-14.78,1.27,2.2-21.66,14.27-21.66,14.27,1.58,2.74,25.24-14.57,25.24-14.57.19.33-21.31,12.31-20.12,14.38.54.93,23.25-15,23.92-13.81L197.67,265.7c.24.42,25.49-14.72,25.49-14.72.72,1.25-22.32,12.39-21.08,14.54.59,1,24.19-15.76,25-14.42.56,1-22.08,11.67-20.61,14.2s24.5-15,24.87-14.36c1.48,2.56-20.84,14.28-20.84,14.28s13.92-8.63,14.18-8.19c0,0-11.49,7.71-11,8.5s6.84-4.52,7.09-4.09c0,0-2.93,3.93-2.92,4a4.17,4.17,0,0,0,.63-.37" fill="none" stroke="#00286f" stroke-linecap="round" stroke-linejoin="round" stroke-width="0.7"/><path d="M132.1,208.26s.32-.21.33-.19" fill="none" stroke="#00286f" stroke-linecap="round" stroke-linejoin="round" stroke-width="0.7"/><path d="M119.69,199s.1-.07.11-.06a12.82,12.82,0,0,1-1.31,2.59c.12.2,1.64-1,1.67-1,.13.22-1,2.18-.9,2.26s1.78-1.23,1.87-1.08c.18.31-2.84,4-2.84,4,.23.39,5.74-3.32,5.74-3.32.24.42-6.12,6.38-6.12,6.38.35.6,6.56-4.14,6.71-3.88.38.65-7.15,5.88-7,6.2.51.88,8.09-5.32,8.37-4.83s-9.2,7.92-9.2,7.92c.67,1.16,10.88-6.28,10.88-6.28.74,1.29-12,8.37-11.45,9.4l13.63-7.87c.49.85-14.61,10.89-14.61,10.89,1,1.78,16.79-10.71,17.23-9.95.64,1.11-17.32,11.9-17.31,11.94s16.34-10.86,17-9.79-17,11.55-16.72,12c.52.91,16.95-10.2,17.13-9.89,0,0-18.22,10.84-17.6,11.9.29.51,15.91-9.18,15.91-9.18s-15.79,10.36-15.21,11.37c.44.76,15.08-8.71,15.08-8.71.13.23-15.69,11.31-15.55,11.54,1,1.79,15.53-9,15.53-9,.78,1.36-16.39,11.16-16.3,11.31l16.78-9.69S114.65,235,115.1,235.81c.26.46,14-9.66,14.71-8.49,0,0-16,9.45-15.26,10.73.85,1.46,15.21-8.78,15.21-8.78.95,1.64-15.8,9.41-15.06,10.68.14.25,14.34-8.28,14.34-8.28s-15.23,10.1-14.87,10.72c0,0,15.89-9.22,15.91-9.18.74,1.29-16.93,11.34-16.59,11.95,0,0,15.73-9.63,16-9.22,0,.09-16.61,12-16.42,12.36L129.19,239c.19.33-17,9.71-15.88,11.65.11.19,15.65-9.21,15.73-9.08" fill="none" stroke="#00286f" stroke-linecap="round" stroke-linejoin="round" stroke-width="0.7"/><path d="M14.22,266c1.43,2.49,24.06-17.06,25.43-14.68,0,0-20.35,13.91-20.09,14.34.06.1,23.58-16.91,25-14.44,1.07,1.85-21,12.85-20.11,14.43,1.4,2.42,25.84-14.92,25.84-14.92.44.77-22.59,13.75-22,14.8.27.47,25.29-15.76,25.79-14.89s-22,14.62-22,14.73c1,1.68,24.47-16.27,25.4-14.66S36.2,264.39,36.79,265.42c1.35,2.35,24-14.68,24.39-14.08,1.14,2-20.88,13.69-20.54,14.29.91,1.58,25-15.41,25.43-14.68L44.84,265.73c.87,1.5,25.67-14.82,25.67-14.82.23.41-22.21,15-22.21,15s25-18,26.54-15.32c1.15,2-22.6,14.07-21.94,15.21,0,0,23.94-16.77,25.22-14.56L58.22,265.19l24-13.85c.06.1-21.58,13.68-21.34,14.1,0,0,24-15.65,24.74-14.28.39.67-21.81,12.18-20.7,14.08.58,1,25-15.42,25.4-14.67,0,0-22.65,14.39-22.45,14.73C69,267.33,92.62,251,92.62,251c1.3,2.25-21.79,14.19-21.66,14.42.95,1.64,23.34-16.87,24.81-14.32,0,0-20.26,12.61-19.42,14.06,1.45,2.52,24.23-14,24.23-14,.13.22-20,14.13-20,14.13s24.79-15.49,25.3-14.61c0,0-21.09,12.9-20.21,14.42.07.13,25.47-14.7,25.47-14.7.68,1.18-23,13.81-22.21,15.22.39.67,40.24-24.38,40.74-23.52,0,0-36.14,23.1-36.08,23.2.39.67,32.8-23.34,34.71-20l-31.12,20s29.67-21.42,31.53-18.2c.88,1.52-30.88,15.62-29,18.8.34.59,28.82-16.64,28.82-16.64.85,1.48-24.54,14-23.4,16,1.53,2.66,24-16,24.94-14.4.42.73-23.63,12.63-22.29,15s25.89-15.52,26.14-15.09c0,0-22.6,14.38-22.36,14.79.4.69,23.71-17.63,25.42-14.68,0,0-23.64,14.56-23.07,15.54.85,1.47,25.08-17.18,26.25-15.16,1.68,2.91-26.23,18-26.23,18,1.54,2.67,31.36-18.42,31.5-18.19,0,0-32.91,18-31.26,20.83l36.42-21c.87,1.51-38.11,19.57-36.21,22.86,0,0,39.51-23.46,39.79-23,1.82,3.15-42,21-39.53,25.29,0,0,13.7-8.52,14-8.06s-14.49,9.4-13.9,10.41,14-8.59,14.23-8.22c0,.06-15.27,9.52-14.66,10.58.11.19,14.62-8.44,14.62-8.44S114,281.48,114.89,283c.66,1.14,13-9.35,13.83-8,0,.06-14.22,8.78-13.35,10.29,0,0,13.13-7.86,13.26-7.65s-14.12,9.52-13.6,10.43c.2.34,13.35-9,13.92-8,0,0-13.07,9.37-12.73,9.95.21.36,13.42-8.21,13.62-7.86.42.73-14,9.36-13.48,10.19.7,1.21,12.6-9.12,13.4-7.73.14.24-14.86,10-14.46,10.65.31.54,14.53-8.89,14.75-8.51.47.81-14,10.62-14,10.64.49.85,13.27-8.2,13.51-7.8,0,0-12.88,8.6-12.34,9.53.44.77,12-8,12.43-7.18.88,1.52-12.75,9.87-12.75,9.87l13.4-7.74c.51.88-13.43,9.29-13.28,9.55.35.61,13.2-8.65,13.64-7.88.17.3-12.8,9.13-12.54,9.59.09.16,12.56-7.38,12.61-7.28.46.8-13.32,9.58-13.32,9.58.88,1.52,14.6-8.43,14.6-8.43.43.75-14.21,10.27-14.21,10.27.57,1,14.12-9.38,14.65-8.46,0,0-14.33,9.31-13.55,10.66.59,1,13.41-9.14,14-8.09.41.7-13.78,9.21-13.15,10.3.43.75,12.4-7.16,12.4-7.16S118,315,118.8,316.29c.14.25,13.32-9.81,14.24-8.22.67,1.17-13.43,10.29-13.38,10.38.66,1.14,14-8.62,14.21-8.2.41.72-12.85,9.67-12.84,9.69s12.77-8,13-7.53c.17.3-11.45,9.11-11.45,9.11s11.42-7.19,11.68-6.74c0,0-9.86,6.85-9.2,8,.27.47,9.31-6.22,9.67-5.58,0,0-7.59,6.5-7.34,6.93.07.13,7.07-4.71,7.34-4.24.54.94-7.08,5.72-6.58,6.58,0,.06,8-4.8,8.06-4.66.44.77-5.2,5.28-5.13,5.42.21.36,4.69-3.16,4.89-2.82.32.56-4.86,4.38-4.52,5,.22.38,4.72-3.24,4.94-2.85,0,0-3.07,3.38-2.85,3.76s3.45-2.07,3.48-2c.16.29-2.24,3-2,3.4s2.68-2,2.89-1.67-2.31,3.92-2.31,3.92S139,332,139,332a15.51,15.51,0,0,1-.7,3.13s.91-.53.91-.52a28.6,28.6,0,0,1-1,2.86,21.27,21.27,0,0,0,2.26-1.3c0,.09-1.22,2.82-1.22,2.82a4.75,4.75,0,0,0,.56-.32l.84,1.5s.13-.09.14-.08" fill="none" stroke="#00286f" stroke-linecap="round" stroke-linejoin="round" stroke-width="0.7"/><path d="M77.31,93.9S90,84.45,90.89,86.06c.3.52-11.8,8.61-11.5,9.14S92,87.81,92,87.91c.53.92-12.73,8.15-11.89,9.6.93,1.6,13.06-9.5,13.91-8,0,0-12.57,7.28-11.77,8.68C83.2,99.75,95,89,95.74,90.37c.23.4-11.67,8.83-11.53,9.06.4.7,11.86-8.48,12.57-7.26.4.7-11.86,8.11-11.47,8.78.69,1.2,13.79-8,13.79-8s-13,8.75-12.59,9.52c.17.29,13.2-9.24,13.9-8,0,.05-12.88,9-12.57,9.52,0,0,13.09-9.38,13.88-8L89,105.27s13.56-7.86,13.57-7.84c.83,1.44-12.7,7.64-12,8.89,0,0,13.41-9.72,14.27-8.24.73,1.26-13.3,8.14-12.42,9.67.59,1,12.36-8.92,13.13-7.58.33.57-10.89,8.12-10.89,8.12.15.26,3.71-2.14,3.71-2.14" fill="none" stroke="#00286f" stroke-linecap="round" stroke-linejoin="round" stroke-width="0.7"/><path d="M121.2,38.82,135,30.88c2,3.4-35.71,19.91-34.43,22.13,3.17,5.48,54.51-37.28,57-32.92,2.1,3.64-67.74,41.76-67.74,41.76s78.5-52.08,81.43-47c6.15,10.64-91,53.63-90.28,54.93,3.6,6.23,101.77-59.56,102.12-59C184.32,13,70.65,73.71,72.71,77.29,75.32,81.8,183.06-5.24,191.21,8.87c3.14,5.44-127.82,66.51-123.48,74,6.64,11.51,133-76.77,133-76.77,2.2,3.82-143.79,69.55-137.06,81.2L205.2,5.58c3,5.22-153.68,71.68-145.43,86C62,95.44,119,50.84,121.82,55.71,125.92,62.83,55.29,97,55.29,97s47.2-31.09,48.87-28.21l-52.36,32.8L94.53,76.9c.87,1.5-47.45,25.32-45.45,28.79.13.23,36.74-24.26,38.06-22,2.23,3.86-43.57,21.34-41.1,25.61,0,0,41.53-27.1,42.88-24.76L43.71,113c.68,1.18,46.06-26.59,46.06-26.59,1.7,2.94-49.14,29.72-48.64,30.59.29.5,29.9-19.62,30.92-17.85,0,0-32.54,20.21-32.32,20.59,1.13,2,29-19.09,30-17.33,0,0-34.48,16.43-32.2,20.38,1.36,2.35,29.62-17.28,29.7-17.15,1.13,2-33.86,18.4-32.18,21.3,0,0,26.87-16.33,27.22-15.72,1.25,2.17-29.49,16.9-28.58,18.48,0,0,25.78-17.33,26.84-15.5.8,1.38-30.45,15.26-28.66,18.34,0,0,24.79-16.44,25.71-14.84.29.51-29.72,15.64-28,18.56S54,120,54.94,121.65c1.75,3-28.35,17.79-27.85,18.67S51.4,124.83,52,125.93c1.75,3-27.12,14.71-25.73,17.12.52.9,23.19-13.39,23.19-13.39.31.53-26.19,14.65-24.83,17,1.48,2.56,22.84-13.52,23-13.27,0,.07-27.5,14.65-25.78,17.63,0,0,22.22-15.16,23.23-13.41l-23.4,15.34s21.19-15.72,22.7-13.11c.4.69-26,13.9-24.77,16.06,0,0,21.78-13.21,22.06-12.73.39.68-23.18,15.4-23.06,15.6,1.14,2,21.84-12.61,21.84-12.61,1.31,2.27-23.29,14.79-23,15.21,1.35,2.33,20.51-14.43,21.63-12.49,0,0-22.84,14.2-22.12,15.44.5.87,20.25-13.45,21-12.13L15.76,167c.47.81,20.45-11.94,20.51-11.84.23.4-23.15,14.16-22.49,15.31.32.55,20.28-12.53,20.64-11.92.57,1-22.42,14.86-22,15.58.19.32,20.17-13.37,20.92-12.08s-21.78,11.76-20.64,13.74c.68,1.18,19.7-11.38,19.7-11.38,1,1.66-22.18,13.83-21.54,14.93l19.88-11.48s-22,12.24-20.86,14.17c.43.75,18.87-13,19.79-11.42C30.9,172.76,9,181.52,10.33,183.81c.29.51,19.19-11.08,19.19-11.08C30.6,174.61,8.17,185,9.21,186.84s18-12.95,19.14-11c.3.53-20.62,11.55-19.6,13.33,1.25,2.17,18.59-12,19.13-11,.94,1.63-21.05,11.28-19.72,13.6,1,1.74,18-10.42,18-10.42.39.68-20,13-19.77,13.47.89,1.54,19-11,19-11,.59,1-19.37,12.65-19.07,13.16,0,0,18.81-11.34,19-11C26.71,188.12,4.34,197,5.58,199.15c.05.09,18.21-10.52,18.21-10.52.16.28-19.26,12.63-18.69,13.61S23.89,191.4,23.89,191.4c1,1.72-20,12.48-19.25,13.8.58,1,16.9-10.14,17.07-9.86.9,1.56-16.9,12.27-16.9,12.27.16.28,15.83-10.07,16.23-9.37.68,1.18-18,11.57-17.58,12.33.21.36,16.47-11.8,17.46-10.08.44.75-18.12,10.79-17.41,12,0,0,15.89-10,16.23-9.37.1.18-16.23,11.22-15.93,11.74s15.29-8.83,15.29-8.83S2.47,217.87,2.63,218.15c1.11,1.92,16.15-9.47,16.21-9.36S2.71,221,2.71,221c.17.3,15.07-11.2,16.15-9.33.08.13-16.53,11.78-16.42,12,.43.74,16.29-9.4,16.29-9.4.19.32-17.65,11.45-17.34,12,.47.82,16.18-9.57,16.28-9.4,1,1.73-16.2,12.1-16.2,12.1.15.25,16-9.35,16.07-9.28C17.76,220,.29,231.31.63,231.9c1,1.76,15.32-10.34,16-9.22L1,234.16c.25.43,14.56-9.45,15-8.67,1,1.68-16.67,9.68-15.9,11,.32.55,15-9.78,15.51-9,0,.06-16,9.51-15.08,11.07,0,0,14.67-9,14.91-8.61C16.14,231.15,0,241.06.25,241.56c.76,1.31,14.19-9.89,14.92-8.62.13.22-15.27,11.66-15.27,11.66.62,1.07,14.5-10.11,15.25-8.81,0,0-16.13,9-15.23,10.56.41.71,14.57-8.41,14.57-8.41.82,1.42-14.64,10.24-14.64,10.24s15.39-9.42,15.62-9C15.56,239.3.87,249.79.93,249.9s12.95-9.18,13.69-7.9c0,0-15.07,9.49-14.63,10.26.71,1.22,14.24-10.4,15.18-8.76C15.41,243.91,0,254.22.1,254.36s14.57-8.45,14.59-8.42c.9,1.56-14.88,11-14.84,11.06.94,1.63,14.06-9.92,14.84-8.57.54.94-14.81,9.79-14.54,10.25,0,0,13.6-9.89,14.48-8.36,0,0-14.92,9.9-14.59,10.48.2.35,15.48-10.46,16.14-9.32C16.61,252.22-.33,262.8,0,263.3c.86,1.49,21.4-12.35,21.4-12.35C22.14,252.31,1,264.63,1,264.63s21.68-16,23.18-13.38C24.71,252.09.81,267,.9,267.18c1.08,1.88,26.15-18.89,27.79-16,.11.19-30.44,15.79-28.6,19,.2.35,33.72-19.47,33.72-19.47C34.43,251.74,0,271.12.47,271.87c0,0,35.18-22.72,36.22-20.91C39.14,255.2-.92,270,1.17,273.66c.93,1.62,13.5-8.71,13.89-8C15.67,266.69,1,275.82,1,275.82s12.71-9.18,13.51-7.8c.48.83-14.47,9.78-14,10.66.38.66,14.44-9.37,14.88-8.59.35.6-15,9.22-14.1,10.82,0,0,14.15-8.4,14.25-8.23L1.22,283.06c.28.49,13.25-7.69,13.27-7.66S1.3,284.57,1.55,285c.63,1.09,14.26-8.23,14.26-8.23.26.44-15.4,9.12-14.48,10.71l13.5-7.79c.23.41-12.67,8.72-12.08,9.72s11.72-7.78,12.16-7-12.83,7.8-12.11,9.05c.35.61,13.49-8.54,13.82-8,0,0-15.67,8.91-14.67,10.64.76,1.31,14.21-8.2,14.21-8.2s-13.7,9.89-13.37,10.46c.46.8,13.62-8.06,13.7-7.91s-14.12,9.42-13.87,9.85,14.51-8.38,14.51-8.38S3.35,298.25,4,299.38s12.48-8,12.81-7.39S4.2,300.39,4.5,300.9c.21.36,12.35-8.42,12.91-7.45S4,301.68,4.59,302.75c0,.07,12.77-8.93,13.44-7.76.05.09-14.19,9.53-13.73,10.33,0,0,13.21-8.45,13.57-7.83,1,1.66-14,8.63-13.09,10.19.71,1.22,13.49-9.06,14-8.11.89,1.55-13.85,8-13.1,9.33l12.47-7.2c.82,1.42-12.47,8.06-11.61,9.56s12.75-7.36,12.75-7.36c.3.52-13.72,8.58-13.21,9.46.16.27,13.32-9,13.9-8,0,0-14,10.28-13.88,10.46s13.58-9.32,14.22-8.21c0,0-13.87,8.54-13.13,9.81s12.36-8.82,13.09-7.56c.07.12-13.12,8.87-12.53,9.9s12.18-8.88,13-7.49c.67,1.15-13.47,8.11-12.73,9.39s12.62-8.54,13.17-7.6l-12.7,9.9s12.22-9,13-7.53c.74,1.27-13.41,7.77-12.61,9.15s12.42-9.09,13.25-7.65c0,0-12.39,9.33-12.26,9.55s12.23-7.06,12.23-7.06S10.05,329,10.32,329.46c.12.2,13-8.55,13.47-7.78.79,1.37-13.1,7.89-12.22,9.42s11-8.4,11.91-6.88c.75,1.29-12,9.27-12,9.27.11.18,13.21-7.63,13.21-7.63S11,334.59,11.81,336c.16.28,13.88-8,13.88-8,.77,1.34-13.72,9.07-13.17,10,0,0,12.86-8.41,13.29-7.67.52.9-11.75,9.49-11.75,9.49.56,1,11.82-8.39,12.5-7.22.48.83-13.07,9.93-12.91,10.2s13.77-8,13.77-8c.25.44-13.12,10-13,10.26s13.73-7.93,13.73-7.93l-12.5,9.15c.51.88,13-8.57,13.49-7.79.13.22-13.12,9-12.59,9.93.37.65,12.76-7.37,12.76-7.37.77,1.34-12.47,9.85-12.47,9.85s13.46-9.31,14.12-8.15c.41.7-12.34,9.92-12.34,9.92.42.72,12.33-7.58,12.53-7.23.52.91-11.61,8.54-11.41,8.89.37.65,11-7.88,11.66-6.73,0,0-12.92,8.35-12.09,9.79.53.92,12.73-7.35,12.73-7.35.32.56-11.83,7.48-11.22,8.55.35.6,12.2-7.42,12.36-7.14.37.64-11.18,8.06-10.9,8.54.07.12,11.55-8.23,12.23-7.06.16.28-12.83,9.41-12.83,9.41.59,1,12.11-9,13-7.49.47.82-11.43,8.29-11.09,8.87l11.88-6.86L24,366.33c.75,1.29,12.62-9.14,13.42-7.75.37.64-13.93,8.11-13.14,9.47,0,0,12.28-8.94,13.08-7.55S25.76,370,25.76,370s11.84-8,12.37-7.14c0,.05-11.77,8.55-11.72,8.64.63,1.09,12-7.9,12.44-7.18,0,0-11,7.54-10.31,8.77.57,1,11.56-6.68,11.56-6.67s-11.18,7.69-10.71,8.52,12.6-7.54,12.72-7.34c.94,1.63-13,9.85-13,9.85s12.76-8.21,13.13-7.58-12,8.62-11.64,9.26c.79,1.36,12.58-8.82,13.25-7.65.82,1.42-11.78,9.11-11.75,9.16.37.64,11.29-8.5,12.15-7,0,.09-12.29,8.36-11.62,9.53,0,0,11.84-8,12.33-7.12.3.51-11.77,7.75-10.94,9.18.49.85,13.26-7.66,13.26-7.66.38.65-13.3,8.39-12.44,9.86.72,1.25,12.71-7.34,12.71-7.34s-12.05,8.22-11.79,8.67c.88,1.53,12.63-9.25,13.48-7.78.32.55-11.88,9.2-11.68,9.54.81,1.41,12.06-7,12.06-7,.31.53-11.88,9.08-11.88,9.08s12-8.81,12.85-7.42c0,0-11.46,7.69-11.12,8.26.59,1,12.76-8.84,13.4-7.74s-14.07,8.38-13.42,9.51c.38.66,13.38-7.73,13.38-7.73s-11.21,9-11.17,9.06,11.94-7.13,12-7c0,0-11.62,8.15-11.07,9.09.24.42,12.46-8.5,13-7.52.09.15-12.18,8.4-11.69,9.26.23.4,13.44-7.76,13.44-7.76.17.29-13.9,8.08-13,9.71,0,0,13.57-8.52,13.87-8s-11.87,9.34-11.87,9.34,12.67-7.75,12.86-7.42c0,0-13.05,8.41-12.52,9.33,0,0,13.88-8.19,14-8.06.72,1.26-12.53,8.13-12.09,8.89s12.49-8.7,13.13-7.58c.43.74-11.76,9.21-11.76,9.21s12.58-8,12.91-7.46-13.17,7.81-12.48,9c.22.38,13.69-7.9,13.69-7.9.47.82-13.36,8-12.6,9.34.17.3,12.62-8.54,13.16-7.6.31.55-12.62,7.93-12,9,0,0,12-7.79,12.35-7.13s-11.31,9.05-11.31,9.05c.83,1.43,11.79-8.73,12.63-7.29.08.15-10.91,8.71-10.9,8.74.4.7,12.57-8.33,13-7.52.11.19-12.11,9.73-12.05,9.84.62,1.08,14-8.53,14.2-8.2.42.72-13.48,7.64-12.56,9.23.24.42,12.85-8,13.09-7.56.68,1.19-12.3,9-12.3,9,.29.51,13.28-8.31,13.56-7.83l-12.22,9.32c.66,1.15,12.68-7.32,12.68-7.32.48.83-12.5,8.07-12,9s13-8.7,13.55-7.82c.15.27-11.89,8.28-11.66,8.67s12.53-7.33,12.57-7.26c.52.9-12,8.06-11.64,8.72.28.49,17.31-12.34,18.32-10.58l-17.77,12.1,18.78-10.84c.94,1.63-16.49,11-16.37,11.19l18-10.37c.49.84-18.16,12.43-18.16,12.43s18.51-11.81,19-11c1.11,1.92-18.65,10.11-17.57,12,0,0,18.38-13.37,19.57-11.3.59,1-17.33,12.53-17.33,12.53s17.37-11.61,18.05-10.42c.82,1.41-16.77,11.66-16.53,12.08,0,0,17.56-13.14,18.86-10.89.58,1-17.55,11.52-17,12.39s15-9.37,15.31-8.84c.08.14-14.61,9.35-14,10.48,0,0,13.06-8.05,13.28-7.67.61,1.06-13.34,8.78-13,9.36s12.72-8.83,13.36-7.71c.33.57-10.73,8.5-10.68,8.59.37.64,12.37-8.77,13.07-7.55,0,.05-13,8.76-12.78,9.15.05.09,13.61-9.62,14.38-8.3,0,.05-12.57,9.87-12.57,9.87l13.63-7.87c.18.32-11.32,8.66-11.32,8.66.81,1.39,13-8.5,13.42-7.75.12.2-13.16,8-12.5,9.15s12.08-8.4,12.7-7.33c.49.85-13.35,7.45-12.44,9,.8,1.39,14.43-9.7,15-8.67,0,0-12.35,9.19-12.21,9.44.63,1.08,13.17-9,13.78-8,.36.62-12,9.47-12,9.47.68,1.18,12.59-7.44,12.67-7.31.23.4-12.87,8-12.36,8.89,0,0,14.06-8.66,14.29-8.25.72,1.24-12.6,7.42-11.86,8.71s13.32-8.36,13.61-7.86c.65,1.12-12.41,9.12-12.41,9.12.47.81,12.67-7.32,12.67-7.32.21.36-11.78,7.81-11.15,8.9,0,0,13-8,13.23-7.64.88,1.53-12.24,9.78-12.24,9.78.73,1.27,13.74-8.89,14.16-8.17.51.88-12.16,9.16-12.14,9.2.75,1.31,14.27-9.28,14.72-8.5.59,1-12.86,8.83-12.42,9.59,0,0,12.64-8.15,13-7.51s-12.69,8.32-12.31,9c.21.36,14.23-8.66,14.43-8.33.61,1.06-12.55,8.44-12.26,8.95s13.74-7.93,13.74-7.93-12.17,8.2-11.71,9c0,.07,12.8-7.39,12.8-7.39s-11.75,7.61-11.28,8.43c.23.4,12.54-8.3,13-7.5.18.32-12,8.07-11.27,9.31.91,1.58,14.26-8.23,14.26-8.23s-14.14,9.45-13.93,9.8c.49.85,15.06-9.44,15.38-8.88s-12.44,9.13-12.16,9.61c.65,1.13,13.23-7.64,13.23-7.64.28.48-12.66,8.39-12.08,9.41l14.39-8.31c.37.65-13.29,8.86-12.74,9.81,0,0,15.58-9,15.59-9,.94,1.63-14.23,8.37-13.35,9.9,0,0,14.13-9.64,14.77-8.53,0,0-12.42,8.89-12.08,9.49,0,0,13-8.89,13.62-7.86,0,0-11.41,9-11.36,9.11s13-8.8,13.53-7.81c.29.51-12.91,7.94-12.28,9s15-9,15.13-8.74c.77,1.34-13.47,9.26-13.16,9.8,1,1.69,13.39-8.43,13.7-7.91.51.89-12.87,8.4-12.35,9.29.2.34,14.18-8.65,14.38-8.3s-12.22,9-12.22,9c.7,1.2,13.79-8.67,14.1-8.14,0,0-12.7,9.54-12.59,9.73.7,1.21,14.45-8.84,14.66-8.47.43.75-13,8.64-12.58,9.43,0,0,14.63-10.61,15.57-9,0,.07-13.29,9.72-13.29,9.72.53.92,13.66-9,14.16-8.17.31.54-14.1,8.84-13.64,9.63.29.5,15.58-9,15.58-9s-13.81,9.82-13.7,10,15.32-8.85,15.32-8.85-12.74,8.44-12.1,9.54,13.42-10,14.4-8.32c.33.57-13.66,9.19-13.22,9.95s16.53-9.82,16.65-9.61c.28.49-14.52,8.12-13.62,9.67s13.33-10,14.35-8.28-13.49,9.18-13.21,9.67c.55,1,14.94-9.87,15.48-8.94,1,1.69-13.14,9.74-13.14,9.74,1,1.78,14.88-11.05,15.94-9.21,0,0-14.82,9.83-14.54,10.32.79,1.37,15.34-9.59,15.65-9,.43.75-14.49,8.8-13.61,10.32.41.71,15.62-10.67,16.33-9.43.62,1.07-13.4,9.8-13.4,9.8.56,1,16.4-9.47,16.4-9.47.54.94-14.5,9.23-13.82,10.42.93,1.61,16.25-9.38,16.25-9.38s-16,9.37-15.2,10.7c0,0,15.68-9.39,15.83-9.14.51.89-13.1,8.64-12.72,9.3.9,1.56,15-10.19,15.67-9,.52.89-14.94,8.15-13.94,9.88.71,1.23,15.21-9.13,15.36-8.87.89,1.53-14.36,9.15-13.65,10.39.5.87,16.8-11.36,17.52-10.12.54.93-14.55,10.77-14.55,10.77,1,1.67,15.93-10.73,16.6-9.58s-14.94,10.25-14.86,10.39,16.46-11.57,17.35-10c.63,1.09-15.71,11.14-15.71,11.14.38.66,16.63-11,17.24-10,.87,1.51-15.22,10.58-15.22,10.58.8,1.38,17-11.5,17.71-10.23l-15,11.39c.61,1.05,17.3-10,17.3-10,.79,1.38-13.45,10.5-13.45,10.5,1,1.66,17.76-11,18.08-10.44.07.12-16.07,11.65-16.07,11.65,1.21,2.09,18.35-11.15,18.6-10.74,1,1.8-17,11.55-17,11.55l19.15-11.06c.88,1.53-16,11.54-16,11.54,1.13,2,17.6-13,18.81-10.86,0,0-15.54,10.33-15,11.31.46.79,17.24-10.5,17.47-10.09,0,0-16.24,9.33-15.17,11.18.93,1.61,19.06-11.71,19.37-11.18.16.28-15.59,11.53-15.45,11.77.39.67,18.62-10.75,18.62-10.75s-17.15,10.77-16.77,11.43c0,0,18.85-12.9,19.73-11.39l-17.46,12.42c1.05,1.82,18.74-13.89,20.07-11.59.57,1-17.61,11.72-17.32,12.21,1.13,2,19.72-11.39,19.72-11.39.81,1.4-16.3,10.47-15.77,11.39,1.34,2.32,19.23-13.77,20.39-11.77.28.49-19.11,12.13-18.6,13,1.41,2.45,21.31-12.32,21.32-12.31.33.58-17.3,12.49-17.3,12.49.91,1.57,20.75-12.48,21-12.1,0,0-18.59,11.11-17.78,12.5.09.15,34.84-20.19,34.87-20.13.31.54-33.3,20.66-33,21.22,1.08,1.88,34.82-20.11,34.82-20.11,1.62,2.81-31.73,19.49-31.22,20.38,1,1.66,43.66-31.93,46.57-26.89.91,1.58-44.84,21.87-42,26.83.09.16,41-23.65,41-23.65.2.34-39.39,20.63-37.24,24.36,1.23,2.14,35.79-24.05,37.26-21.51,1.73,3-32.84,21.65-32.84,21.65.15.26,88.12-65.34,94.39-54.49,6.13,10.62-92.79,53-91.56,55.16,0,0,83.27-59,88-50.82,0,0-90.11,41-84.32,51,4.28,7.42,76.55-50.23,79.16-45.7.69,1.19-77.2,40.55-74.38,45.43.92,1.6,64.84-43.83,67.61-39,3.72,6.44-65,38.13-64.11,39.73,3.34,5.79,53-38.53,56.43-32.58,2.46,4.26-51.67,32.27-51.49,32.58,1,1.79,40.28-23.32,40.31-23.27,1.8,3.13-36.79,22-36,23.32.28.49,27.92-18.41,28.91-16.69.49.85-24.21,15.94-24.21,15.94.43.75,29-17.23,29.23-16.88,1.27,2.2-26.89,16.76-26.65,17.18,1.85,3.2,29.73-20.89,31.34-18.09.36.63-27.17,18.09-27.17,18.09.91,1.58,31-22.89,33.18-19.16,2,3.53-28.39,18.71-28.39,18.71,1.17,2,31.5-22.68,33.45-19.31,1.26,2.18-31.64,16.8-30.11,19.45,2,3.49,34.94-23.53,36.4-21,1.84,3.18-32.14,20.58-32.14,20.58.66,1.14,38.76-23,39-22.52,1.92,3.33-33.42,20.13-32.67,21.42,1.28,2.21,40.76-25.16,41.46-23.94,1.1,1.91-36.75,19.47-34.79,22.85,1.65,2.86,47.43-28.15,47.76-27.57,1.64,2.84-43.08,26.8-42.79,27.3,1.65,2.87,59.29-34.36,59.35-34.26,3.33,5.78-54.51,31.69-53.63,33.21s137.49-90,142.08-82c6.27,10.86-143.32,66.18-135,80.55,3.8,6.59,123.45-87.72,130.58-75.39,7.52,13-126.76,68.82-124,73.65,3.69,6.39,116.43-73.07,119-68.68,1.78,3.08-118.59,58.39-113.47,67.25,0,0,106.09-68.55,109.25-63.07,0,0-107.75,52.2-102.62,61.09,0,0,93.34-63.41,97.46-56.27,0,0-94.56,45.78-90,53.73,2.43,4.2,80.65-52.91,83.4-48.15,1.45,2.51-71.54,43.13-71.36,43.45,4,6.88,60.28-38.44,61.85-35.71,2.2,3.81-38.52,24.91-38.52,24.91s16.61-10.1,16.83-9.72" fill="none" stroke="#00286f" stroke-linecap="round" stroke-linejoin="round" stroke-width="0.7"/></g></svg>